<svg xmlns="http://www.w3.org/2000/svg" version="1.1" xmlns:xlink="http://www.w3.org/1999/xlink" preserveAspectRatio="none" x="0px" y="0px" width="512px" height="512px" viewBox="0 0 512 512"><svg version="1.1" xmlns="http://www.w3.org/2000/svg" viewBox="0 0 2000 2000"><path fill="#ffffff" d="M2000,2000c-666.8,0-1333.4,0-2000,0C0,1333.4,0,666.7,0,0c666.7,0,1333.3,0,2000,0C2000,666.6,2000,1333.3,2000,2000z"></path></svg><svg version="1.1" xmlns="http://www.w3.org/2000/svg" viewBox="0 0 2000 2000"><path stroke="#000000" fill="#000000" d="M2000,1540h-76.9v444.8h-39.9v-56.4h-1112v52.3h-40.1v-189.4H242.2v160.4h-40.1v-411.5H35.3v-40.1h166.3v-735H48.2v-39.9
	h153.5v-472H48.4v-40.1h420.5V45.4h39.9v167.2H1241V0h40v212.6h602.2V54.3h40V1500h76.8V1540z M242.4,253.2v984.4h998.4V253.2H242.4
	z M1281.2,724.7h601.4V253.3h-601.4V724.7z M1882.6,1887.8v-347.4h-601.4v347.4H1882.6z M1600.3,765.2v472.4h282.4V765.2H1600.3z
	 M1281.3,765.2v472.3h278.4V765.2L1281.3,765.2z M242.2,1499.6h488.5v-221.4H242.2V1499.6z M1240.7,1499.8v-221.5H771.4v221.5
	H1240.7z M242.4,1540.2v210.4h488.4v-210.4H242.4z M771.4,1540.2v210.4h469.4v-210.4L771.4,1540.2z M1882.6,1499.8v-221.4h-282.4
	v221.4H1882.6z M1281.1,1499.6h278.5v-221.2h-278.5V1499.6z M1240.8,1791.3H771.4v96.4h469.4V1791.3z"></path></svg><svg version="1.1" xmlns="http://www.w3.org/2000/svg" viewBox="0 0 2000 2000"><path fill="#D95D37" d="M1883.2,212.6c-200.6,0-401.5,0-602.2,0c0-71,0-141.5,0-212.6c213.9,0,428.2,0,642.2,0c0,17.9,0,36.3,0,54.3 c-13.2,0-26.5,0-40,0C1883.2,107.8,1883.2,159.8,1883.2,212.6z"></path></svg><svg version="1.1" xmlns="http://www.w3.org/2000/svg" viewBox="0 0 2000 2000"><path fill="#242B57" d="M1882.6,724.7c-200.8,0-400.8,0-601.4,0c0-157.3,0-314,0-471.4c200.6,0,400.7,0,601.4,0 C1882.6,410.5,1882.6,567.3,1882.6,724.7z"></path></svg><svg version="1.1" xmlns="http://www.w3.org/2000/svg" viewBox="0 0 2000 2000"><path fill="#242B57" d="M1240.7,1237.6c-163.1,0-835.4,0-998.4,0c0-70.3,0-914,0-984.4c163,0,835.4,0,998.4,0 C1240.7,323.5,1240.7,1167.2,1240.7,1237.6z"></path></svg><svg version="1.1" xmlns="http://www.w3.org/2000/svg" viewBox="0 0 2000 2000"><path fill="#D95D37" d="M730.8,1499.6c-163.1,0-325.6,0-488.5,0c0-70.3,0-151,0-221.4c163,0,325.5,0,488.5,0	C730.8,1348.6,730.8,1429.3,730.8,1499.6z"></path></svg><svg version="1.1" xmlns="http://www.w3.org/2000/svg" viewBox="0 0 2000 2000"><path fill="#242B57" d="M730.7,1750.6c-163.1,0-325.4,0-488.4,0c0-70.3,0-140,0-210.4c163,0,325.4,0,488.4,0	C730.7,1610.5,730.7,1680.3,730.7,1750.6z"></path></svg><svg version="1.1" xmlns="http://www.w3.org/2000/svg" viewBox="0 0 2000 2000"><path fill="#242B57" d="M1240.8,1887.7c-156.8,0-312.7,0-469.4,0c0-32.3,0-64,0-96.4c156.6,0,312.7,0,469.4,0	C1240.8,1823.6,1240.8,1855.4,1240.8,1887.7z"></path></svg><svg version="1.1" xmlns="http://www.w3.org/2000/svg" viewBox="0 0 2000 2000"><path fill="#ffffff00" d="M242.2,1951.7c0,16,0,32.3,0,48.3c-80.7,0-161.5,0-242.2,0c0-166.7,0-333.2,0-499.9c11.7,0,23.6,0,35.3,0	c0,13.3,0,26.5,0,40.1c56,0,111,0,166.8,0c0,137.4,0,274.2,0,411.6C215.7,1951.7,229.1,1951.7,242.2,1951.7z"></path></svg><svg version="1.1" xmlns="http://www.w3.org/2000/svg" viewBox="0 0 2000 2000"><path fill="#242B57" d="M1923,1540c25.7,0,51.3,0,77,0c0,153.3,0,306.7,0,460c-39,0-77.9,0-116.9,0c0-5,0-10.3,0-15.2	c13.3,0,26.4,0,39.9,0C1923,1835.9,1923,1688.1,1923,1540z"></path></svg></svg>