<?xml version="1.0" encoding="utf-8"?>
<!-- Generator: Adobe Illustrator 26.4.1, SVG Export Plug-In . SVG Version: 6.00 Build 0)  -->
<svg version="1.1" id="Ebene_1" xmlns="http://www.w3.org/2000/svg" xmlns:xlink="http://www.w3.org/1999/xlink" x="0px" y="0px"
	 viewBox="0 0 2000 2000" style="enable-background:new 0 0 2000 2000;" xml:space="preserve">
<style type="text/css">
	.st0{display:none;}
	.st1{display:inline;}
	.st2{fill:#242B57;}
	.st3{fill:#D95D37;}
	.st4{display:none;fill:#FF0000;}
</style>
<g class="st0">
	<g class="st1">
		<rect x="1271.2" y="243.3" class="st2" width="621.4" height="491.4"/>
	</g>
</g>
<g class="st0">
	<g class="st1">
		<rect x="232.2" y="1268.3" class="st2" width="508.5" height="241.4"/>
	</g>
</g>
<g>
	<g>
		<rect x="232.4" y="1530.2" class="st3" width="508.4" height="230.4"/>
	</g>
</g>
<g class="st0">
	<g class="st1">
		<path d="M1240.8,1887.7c-156.8,0-312.7,0-469.4,0c0-32.3,0-64,0-96.4c156.6,0,312.7,0,469.4,0
			C1240.8,1823.6,1240.8,1855.4,1240.8,1887.7z"/>
	</g>
</g>
<polygon class="st0" points="0,2000 0,1500.1 45.3,1500.1 45.3,1530.1 212.1,1530.1 212.1,1941.7 242.2,1941.7 242.2,2000 "/>
<g class="st0">
	<g class="st1">
		<polygon class="st2" points="1271,222.6 1271,0 1923.2,0 1923.2,64.3 1893.2,64.3 1893.2,222.6 		"/>
	</g>
</g>
<g class="st0">
	<g class="st1">
		<polygon points="1883.2,2000 1883.2,1974.8 1913,1974.8 1913,1530 2000,1530 2000,2000 1922.1,2000 		"/>
	</g>
</g>
<g class="st0">
	<g class="st1">
		<rect x="232.4" y="243.2" class="st2" width="1018.4" height="1004.4"/>
	</g>
</g>
<path class="st4" d="M2000,1540h-76.9v444.8h-39.9v-56.4h-1112v52.3h-40.1v-189.4H242.2v160.4h-40.1v-411.5H35.3v-40.1h166.3v-735
	H48.2v-39.9h153.5v-472H48.4v-40.1h420.5V45.4h39.9v167.2H1241V0h40v212.6h602.2V54.3h40V1500h76.8V1540z M242.4,253.2v984.4h998.4
	V253.2H242.4z M1281.2,724.6h601.4V253.3h-601.4V724.6z M1882.6,1887.8v-347.4h-601.4v347.4H1882.6z M1600.3,765.2v472.4h282.4
	V765.2H1600.3z M1281.3,765.2v472.3h278.4V765.2L1281.3,765.2z M242.2,1499.6h488.5v-221.4H242.2V1499.6z M1240.7,1499.8v-221.5
	H771.4v221.5H1240.7z M242.4,1540.2v210.4h488.4v-210.4H242.4z M771.4,1540.2v210.4h469.4v-210.4L771.4,1540.2z M1882.6,1499.8
	v-221.4h-282.4v221.4H1882.6z M1281.1,1499.6h278.5v-221.2h-278.5V1499.6z M1240.8,1791.3H771.4v96.4h469.4V1791.3z"/>
</svg>
