<?xml version="1.0" standalone="no"?>
<svg version="1.1" width="500" height="500" style="overflow: hidden;" xmlns="http://www.w3.org/2000/svg"><defs></defs><g id="two-0" transform="matrix(1 0 0 1 0 0)" opacity="1"><path transform="matrix(1 0 0 1 250 250)" id="two-257" d="M -250 -250 L 250 -250 L 250 250 L -250 250 Z " fill="#ffffff" stroke="undefined" stroke-width="1" stroke-opacity="1" fill-opacity="1" visibility="visible" stroke-linecap="butt" stroke-linejoin="miter" stroke-miterlimit="4"></path><path transform="matrix(1 0 0 1 202.400314 305.207489)" id="two-258" d="M -12.340316 -9.9825 L 12.340315 9.9825 L -12.340316 9.9825 " fill="#7b786f" stroke="undefined" stroke-width="1" stroke-opacity="1" fill-opacity="1" visibility="visible" stroke-linecap="butt" stroke-linejoin="miter" stroke-miterlimit="4"></path><path transform="matrix(1 0 0 1 318.369995 308.259857)" id="two-259" d="M -8.430001 -6.930158 L 8.43 6.930157 L -8.43 6.930157 " fill="#b89144" stroke="undefined" stroke-width="1" stroke-opacity="1" fill-opacity="1" visibility="visible" stroke-linecap="butt" stroke-linejoin="miter" stroke-miterlimit="4"></path><path transform="matrix(1 0 0 1 182.715759 196.419204)" id="two-260" d="M -7.344235 -5.715937 L 7.344234 -6.359201 L 7.344234 6.3592 " fill="#b89144" stroke="undefined" stroke-width="1" stroke-opacity="1" fill-opacity="1" visibility="visible" stroke-linecap="butt" stroke-linejoin="miter" stroke-miterlimit="4"></path><path transform="matrix(1 0 0 1 0 0)" id="two-261" d="M 144.683492 192.047209 L 355.316507 182.82279 " fill="#fff" stroke="#000" stroke-width="1" stroke-opacity="1" fill-opacity="1" visibility="visible" stroke-linecap="square" stroke-linejoin="miter" stroke-miterlimit="4"></path><path transform="matrix(1 0 0 1 0 0)" id="two-262" d="M 309.94 153.53 L 309.94 346.47 " fill="#fff" stroke="#000" stroke-width="1" stroke-opacity="1" fill-opacity="1" visibility="visible" stroke-linecap="square" stroke-linejoin="miter" stroke-miterlimit="4"></path><path transform="matrix(1 0 0 1 0 0)" id="two-263" d="M 449.02 315.19 L 50.979999 315.19 " fill="#fff" stroke="#000" stroke-width="1" stroke-opacity="1" fill-opacity="1" visibility="visible" stroke-linecap="square" stroke-linejoin="miter" stroke-miterlimit="4"></path><path transform="matrix(1 0 0 1 0 0)" id="two-264" d="M 190.06 346.33 L 190.06 158.92 " fill="#fff" stroke="#000" stroke-width="1" stroke-opacity="1" fill-opacity="1" visibility="visible" stroke-linecap="square" stroke-linejoin="miter" stroke-miterlimit="4"></path><path transform="matrix(1 0 0 1 0 0)" id="two-265" d="M 354.423825 337.89907 L 147.747705 167.994193 " fill="#fff" stroke="#000" stroke-width="1" stroke-opacity="1" fill-opacity="1" visibility="visible" stroke-linecap="square" stroke-linejoin="miter" stroke-miterlimit="4"></path><path transform="matrix(1 0 0 1 0 0)" id="two-266" d="M 168.353062 277.665521 L 331.646937 409.759478 " fill="#fff" stroke="#000" stroke-width="1" stroke-opacity="1" fill-opacity="1" visibility="visible" stroke-linecap="square" stroke-linejoin="miter" stroke-miterlimit="4"></path><path transform="matrix(1 0 0 1 250 250)" id="two-267" d="M -250 -250 L 250 -250 L 250 250 L -250 250 Z " fill="transparent" stroke="#000" stroke-width="0" stroke-opacity="1" fill-opacity="1" visibility="visible" stroke-linecap="butt" stroke-linejoin="miter" stroke-miterlimit="4"></path><path transform="matrix(1 0 0 1 250 250)" id="two-268" d="M -250 -250 L 250 -250 L 250 250 L -250 250 Z " fill="#ffffff" stroke="undefined" stroke-width="1" stroke-opacity="1" fill-opacity="1" visibility="visible" stroke-linecap="butt" stroke-linejoin="miter" stroke-miterlimit="4"></path><path transform="matrix(1 0 0 1 188.619995 280.816131)" id="two-269" d="M -139.680001 -89.601123 L 90.38837 -95.273878 L 139.68 95.273877 L -139.680001 95.273877 " fill="#948c81" stroke="undefined" stroke-width="1" stroke-opacity="1" fill-opacity="1" visibility="visible" stroke-linecap="butt" stroke-linejoin="miter" stroke-miterlimit="4"></path><path transform="matrix(1 0 0 1 365.034179 278.695007)" id="two-270" d="M -86.025815 -93.152755 L 86.025814 -97.395001 L 86.025814 97.394999 L -36.734186 97.394999 " fill="#948c81" stroke="undefined" stroke-width="1" stroke-opacity="1" fill-opacity="1" visibility="visible" stroke-linecap="butt" stroke-linejoin="miter" stroke-miterlimit="4"></path><path transform="matrix(1 0 0 1 352.299499 136.313522)" id="two-271" d="M -98.760491 -49.228722 L 98.76049 -12.403525 L 98.76049 44.986475 L -73.291139 49.228721 " fill="#948c81" stroke="undefined" stroke-width="1" stroke-opacity="1" fill-opacity="1" visibility="visible" stroke-linecap="butt" stroke-linejoin="miter" stroke-miterlimit="4"></path><path transform="matrix(1 0 0 1 163.974182 120.077499)" id="two-272" d="M -115.034186 -71.1375 L 89.564834 -32.992697 L 115.034185 65.464745 L -115.034186 71.1375 " fill="#b89144" stroke="undefined" stroke-width="1" stroke-opacity="1" fill-opacity="1" visibility="visible" stroke-linecap="butt" stroke-linejoin="miter" stroke-miterlimit="4"></path><path transform="matrix(1 0 0 1 0 0)" id="two-273" d="M -4.518856 38.973297 L 504.518855 133.876702 " fill="#fff" stroke="#000" stroke-width="1" stroke-opacity="1" fill-opacity="1" visibility="visible" stroke-linecap="square" stroke-linejoin="miter" stroke-miterlimit="4"></path><path transform="matrix(1 0 0 1 0 0)" id="two-274" d="M 451.06 64.21 L 451.06 435.79 " fill="#fff" stroke="#000" stroke-width="1" stroke-opacity="1" fill-opacity="1" visibility="visible" stroke-linecap="square" stroke-linejoin="miter" stroke-miterlimit="4"></path><path transform="matrix(1 0 0 1 0 0)" id="two-275" d="M 559.9 376.09 L -59.9 376.09 " fill="#fff" stroke="#000" stroke-width="1" stroke-opacity="1" fill-opacity="1" visibility="visible" stroke-linecap="square" stroke-linejoin="miter" stroke-miterlimit="4"></path><path transform="matrix(1 0 0 1 0 0)" id="two-276" d="M 48.94 389.59 L 48.94 35.44 " fill="#fff" stroke="#000" stroke-width="1" stroke-opacity="1" fill-opacity="1" visibility="visible" stroke-linecap="square" stroke-linejoin="miter" stroke-miterlimit="4"></path><path transform="matrix(1 0 0 1 0 0)" id="two-277" d="M 361.097641 502.876577 L 220.741377 -39.701774 " fill="#fff" stroke="#000" stroke-width="1" stroke-opacity="1" fill-opacity="1" visibility="visible" stroke-linecap="square" stroke-linejoin="miter" stroke-miterlimit="4"></path><path transform="matrix(1 0 0 1 0 0)" id="two-278" d="M 29.146016 191.703056 L 470.853983 180.811943 " fill="#fff" stroke="#000" stroke-width="1" stroke-opacity="1" fill-opacity="1" visibility="visible" stroke-linecap="square" stroke-linejoin="miter" stroke-miterlimit="4"></path><path transform="matrix(1 0 0 1 250 250)" id="two-279" d="M -250 -250 L 250 -250 L 250 250 L -250 250 Z " fill="transparent" stroke="#000" stroke-width="0" stroke-opacity="1" fill-opacity="1" visibility="visible" stroke-linecap="butt" stroke-linejoin="miter" stroke-miterlimit="4"></path><path transform="matrix(1 0 0 1 250 250)" id="two-280" d="M -250 -250 L 250 -250 L 250 250 L -250 250 Z " fill="#ffffff" stroke="undefined" stroke-width="1" stroke-opacity="1" fill-opacity="1" visibility="visible" stroke-linecap="butt" stroke-linejoin="miter" stroke-miterlimit="4"></path><path transform="matrix(1 0 0 1 190.195007 258.54251)" id="two-281" d="M -112.905 -140.0175 L 110.842433 3.443975 L 112.905 140.017499 L -112.905 140.017499 " fill="#b89144" stroke="undefined" stroke-width="1" stroke-opacity="1" fill-opacity="1" visibility="visible" stroke-linecap="butt" stroke-linejoin="miter" stroke-miterlimit="4"></path><path transform="matrix(1 0 0 1 361.873718 330.273223)" id="two-282" d="M -60.836284 -68.286763 L 60.836283 9.726762 L 60.836283 68.286762 L -58.773717 68.286762 " fill="#948c81" stroke="undefined" stroke-width="1" stroke-opacity="1" fill-opacity="1" visibility="visible" stroke-linecap="butt" stroke-linejoin="miter" stroke-miterlimit="4"></path><path transform="matrix(1 0 0 1 360.595825 216.377288)" id="two-283" d="M -62.114174 -123.622706 L 62.114173 -114.937295 L 62.114173 123.622705 L -59.558393 45.60918 " fill="#b89144" stroke="undefined" stroke-width="1" stroke-opacity="1" fill-opacity="1" visibility="visible" stroke-linecap="butt" stroke-linejoin="miter" stroke-miterlimit="4"></path><path transform="matrix(1 0 0 1 189.163711 169.638244)" id="two-284" d="M -111.873717 -51.113238 L -111.873717 -92.348238 L 109.317936 -76.883649 L 111.873716 92.348237 " fill="#7b786f" stroke="undefined" stroke-width="1" stroke-opacity="1" fill-opacity="1" visibility="visible" stroke-linecap="butt" stroke-linejoin="miter" stroke-miterlimit="4"></path><path transform="matrix(1 0 0 1 0 0)" id="two-285" d="M 49.019011 75.313437 L 450.980988 103.416562 " fill="#fff" stroke="#000" stroke-width="1" stroke-opacity="1" fill-opacity="1" visibility="visible" stroke-linecap="square" stroke-linejoin="miter" stroke-miterlimit="4"></path><path transform="matrix(1 0 0 1 0 0)" id="two-286" d="M 422.71 22.7 L 422.71 477.3 " fill="#fff" stroke="#000" stroke-width="1" stroke-opacity="1" fill-opacity="1" visibility="visible" stroke-linecap="square" stroke-linejoin="miter" stroke-miterlimit="4"></path><path transform="matrix(1 0 0 1 0 0)" id="two-287" d="M 487.87 398.56 L 12.129999 398.56 " fill="#fff" stroke="#000" stroke-width="1" stroke-opacity="1" fill-opacity="1" visibility="visible" stroke-linecap="square" stroke-linejoin="miter" stroke-miterlimit="4"></path><path transform="matrix(1 0 0 1 0 0)" id="two-288" d="M 77.289999 499.7 L 77.289999 -23.850001 " fill="#fff" stroke="#000" stroke-width="1" stroke-opacity="1" fill-opacity="1" visibility="visible" stroke-linecap="square" stroke-linejoin="miter" stroke-miterlimit="4"></path><path transform="matrix(1 0 0 1 0 0)" id="two-289" d="M 305.2784 542.803551 L 296.303252 -51.488963 " fill="#fff" stroke="#000" stroke-width="1" stroke-opacity="1" fill-opacity="1" visibility="visible" stroke-linecap="square" stroke-linejoin="miter" stroke-miterlimit="4"></path><path transform="matrix(1 0 0 1 0 0)" id="two-290" d="M 14.540614 78.291602 L 485.459385 380.233397 " fill="#fff" stroke="#000" stroke-width="1" stroke-opacity="1" fill-opacity="1" visibility="visible" stroke-linecap="square" stroke-linejoin="miter" stroke-miterlimit="4"></path><path transform="matrix(1 0 0 1 250 250)" id="two-291" d="M -250 -250 L 250 -250 L 250 250 L -250 250 Z " fill="transparent" stroke="#000" stroke-width="0" stroke-opacity="1" fill-opacity="1" visibility="visible" stroke-linecap="butt" stroke-linejoin="miter" stroke-miterlimit="4"></path><path transform="matrix(1 0 0 1 250 250)" id="two-292" d="M -250 -250 L 250 -250 L 250 250 L -250 250 Z " fill="#ffffff" stroke="undefined" stroke-width="1" stroke-opacity="1" fill-opacity="1" visibility="visible" stroke-linecap="butt" stroke-linejoin="miter" stroke-miterlimit="4"></path><path transform="matrix(1 0 0 1 329.049987 353.500915)" id="two-293" d="M -3.150001 -5.579095 L 3.15 5.579094 L -3.150001 5.579094 " fill="#948c81" stroke="undefined" stroke-width="1" stroke-opacity="1" fill-opacity="1" visibility="visible" stroke-linecap="butt" stroke-linejoin="miter" stroke-miterlimit="4"></path><path transform="matrix(1 0 0 1 200.408798 171.924911)" id="two-294" d="M 21.455465 -8.265087 L 26.308798 0.330852 L -26.308799 8.265086 L -26.308799 2.175086 " fill="#7b786f" stroke="undefined" stroke-width="1" stroke-opacity="1" fill-opacity="1" visibility="visible" stroke-linecap="butt" stroke-linejoin="miter" stroke-miterlimit="4"></path><path transform="matrix(1 0 0 1 273.882141 156.587875)" id="two-295" d="M 52.017867 -15.667883 L 52.017867 0.712117 L -47.164535 15.667882 L -52.017868 7.071944 " fill="#b89144" stroke="undefined" stroke-width="1" stroke-opacity="1" fill-opacity="1" visibility="visible" stroke-linecap="butt" stroke-linejoin="miter" stroke-miterlimit="4"></path><path transform="matrix(1 0 0 1 0 0)" id="two-296" d="M 87.328609 193.066236 L 412.67139 121.953763 " fill="#fff" stroke="#000" stroke-width="1" stroke-opacity="1" fill-opacity="1" visibility="visible" stroke-linecap="square" stroke-linejoin="miter" stroke-miterlimit="4"></path><path transform="matrix(1 0 0 1 0 0)" id="two-297" d="M 325.9 95.08 L 325.9 404.92 " fill="#fff" stroke="#000" stroke-width="1" stroke-opacity="1" fill-opacity="1" visibility="visible" stroke-linecap="square" stroke-linejoin="miter" stroke-miterlimit="4"></path><path transform="matrix(1 0 0 1 0 0)" id="two-298" d="M 343.46 359.08 L 156.54 359.08 " fill="#fff" stroke="#000" stroke-width="1" stroke-opacity="1" fill-opacity="1" visibility="visible" stroke-linecap="square" stroke-linejoin="miter" stroke-miterlimit="4"></path><path transform="matrix(1 0 0 1 0 0)" id="two-299" d="M 174.1 448.88 L 174.1 84.3 " fill="#fff" stroke="#000" stroke-width="1" stroke-opacity="1" fill-opacity="1" visibility="visible" stroke-linecap="square" stroke-linejoin="miter" stroke-miterlimit="4"></path><path transform="matrix(1 0 0 1 0 0)" id="two-300" d="M 342.967241 378.150304 L 211.097023 144.589522 " fill="#fff" stroke="#000" stroke-width="1" stroke-opacity="1" fill-opacity="1" visibility="visible" stroke-linecap="square" stroke-linejoin="miter" stroke-miterlimit="4"></path><path transform="matrix(1 0 0 1 0 0)" id="two-301" d="M 109.945268 189.863924 L 390.054731 147.626075 " fill="#fff" stroke="#000" stroke-width="1" stroke-opacity="1" fill-opacity="1" visibility="visible" stroke-linecap="square" stroke-linejoin="miter" stroke-miterlimit="4"></path><path transform="matrix(1 0 0 1 250 250)" id="two-302" d="M -250 -250 L 250 -250 L 250 250 L -250 250 Z " fill="transparent" stroke="#000" stroke-width="0" stroke-opacity="1" fill-opacity="1" visibility="visible" stroke-linecap="butt" stroke-linejoin="miter" stroke-miterlimit="4"></path><path transform="matrix(1 0 0 1 250 250)" id="two-303" d="M -250 -250 L 250 -250 L 250 250 L -250 250 Z " fill="#ffffff" stroke="undefined" stroke-width="1" stroke-opacity="1" fill-opacity="1" visibility="visible" stroke-linecap="butt" stroke-linejoin="miter" stroke-miterlimit="4"></path><path transform="matrix(1 0 0 1 137.129394 398.342498)" id="two-304" d="M 6.730606 -8.8275 L 6.730606 8.8275 L -6.730607 8.8275 " fill="#b89144" stroke="undefined" stroke-width="1" stroke-opacity="1" fill-opacity="1" visibility="visible" stroke-linecap="butt" stroke-linejoin="miter" stroke-miterlimit="4"></path><path transform="matrix(1 0 0 1 195.904571 258.487762)" id="two-305" d="M -52.04457 -114.627765 L 16.175684 -131.027236 L 52.044569 -5.490466 L -52.04457 131.027235 " fill="#b89144" stroke="undefined" stroke-width="1" stroke-opacity="1" fill-opacity="1" visibility="visible" stroke-linecap="butt" stroke-linejoin="miter" stroke-miterlimit="4"></path><path transform="matrix(1 0 0 1 364.668182 99.914909)" id="two-306" d="M -8.52817 -7.084913 L 8.528169 -11.185088 L -8.52817 11.185087 " fill="#948c81" stroke="undefined" stroke-width="1" stroke-opacity="1" fill-opacity="1" visibility="visible" stroke-linecap="butt" stroke-linejoin="miter" stroke-miterlimit="4"></path><path transform="matrix(1 0 0 1 0 0)" id="two-307" d="M 39.259839 169.004837 L 460.74016 67.685162 " fill="#fff" stroke="#000" stroke-width="1" stroke-opacity="1" fill-opacity="1" visibility="visible" stroke-linecap="square" stroke-linejoin="miter" stroke-miterlimit="4"></path><path transform="matrix(1 0 0 1 0 0)" id="two-308" d="M 356.14 -10.270001 L 356.14 510.27 " fill="#fff" stroke="#000" stroke-width="1" stroke-opacity="1" fill-opacity="1" visibility="visible" stroke-linecap="square" stroke-linejoin="miter" stroke-miterlimit="4"></path><path transform="matrix(1 0 0 1 0 0)" id="two-309" d="M 372.3 407.17 L 127.7 407.17 " fill="#fff" stroke="#000" stroke-width="1" stroke-opacity="1" fill-opacity="1" visibility="visible" stroke-linecap="square" stroke-linejoin="miter" stroke-miterlimit="4"></path><path transform="matrix(1 0 0 1 0 0)" id="two-310" d="M 143.86 550.17 L 143.86 0.86 " fill="#fff" stroke="#000" stroke-width="1" stroke-opacity="1" fill-opacity="1" visibility="visible" stroke-linecap="square" stroke-linejoin="miter" stroke-miterlimit="4"></path><path transform="matrix(1 0 0 1 0 0)" id="two-311" d="M 299.862769 434.688743 L 204.217485 99.941785 " fill="#fff" stroke="#000" stroke-width="1" stroke-opacity="1" fill-opacity="1" visibility="visible" stroke-linecap="square" stroke-linejoin="miter" stroke-miterlimit="4"></path><path transform="matrix(1 0 0 1 0 0)" id="two-312" d="M 82.027282 470.611457 L 417.972717 30.003542 " fill="#fff" stroke="#000" stroke-width="1" stroke-opacity="1" fill-opacity="1" visibility="visible" stroke-linecap="square" stroke-linejoin="miter" stroke-miterlimit="4"></path><path transform="matrix(1 0 0 1 250 250)" id="two-313" d="M -250 -250 L 250 -250 L 250 250 L -250 250 Z " fill="transparent" stroke="#000" stroke-width="0" stroke-opacity="1" fill-opacity="1" visibility="visible" stroke-linecap="butt" stroke-linejoin="miter" stroke-miterlimit="4"></path></g></svg>