<?xml version="1.0" standalone="no"?>
<svg version="1.1" width="500" height="500" style="overflow: hidden;" xmlns="http://www.w3.org/2000/svg"><defs></defs><g id="two-0" transform="matrix(1 0 0 1 0 0)" opacity="1"><path transform="matrix(1 0 0 1 250 250)" id="two-3572" d="M -250 -250 L 250 -250 L 250 250 L -250 250 Z " fill="#000000" stroke="undefined" stroke-width="1" stroke-opacity="1" fill-opacity="1" visibility="visible" stroke-linecap="butt" stroke-linejoin="miter" stroke-miterlimit="4"></path><path transform="matrix(1 0 0 1 247.447158 329.492492)" id="two-3573" d="M -23.367158 -34.4625 L 23.367157 -34.4625 L -23.367158 34.462499 " fill="#f61710" stroke="undefined" stroke-width="1" stroke-opacity="1" fill-opacity="1" visibility="visible" stroke-linecap="butt" stroke-linejoin="miter" stroke-miterlimit="4"></path><path transform="matrix(1 0 0 1 273.367156 291.265014)" id="two-3574" d="M 2.552842 -3.765 L 2.552842 3.764999 L -2.552843 3.764999 " fill="#ffd313" stroke="undefined" stroke-width="1" stroke-opacity="1" fill-opacity="1" visibility="visible" stroke-linecap="butt" stroke-linejoin="miter" stroke-miterlimit="4"></path><path transform="matrix(1 0 0 1 250 231.846328)" id="two-3575" d="M -25.92 -7.766332 L 25.919999 -26.876332 L 25.919999 -4.090637 L -25.92 26.876331 " fill="#ffd313" stroke="undefined" stroke-width="1" stroke-opacity="1" fill-opacity="1" visibility="visible" stroke-linecap="butt" stroke-linejoin="miter" stroke-miterlimit="4"></path><path transform="matrix(1 0 0 1 0 0)" id="two-3576" d="M 185.535531 238.288811 L 314.464468 190.761188 " fill="#fff" stroke="#fff" stroke-width="1" stroke-opacity="1" fill-opacity="1" visibility="visible" stroke-linecap="square" stroke-linejoin="miter" stroke-miterlimit="4"></path><path transform="matrix(1 0 0 1 0 0)" id="two-3577" d="M 275.919999 60.009999 L 275.919999 439.99 " fill="#fff" stroke="#fff" stroke-width="1" stroke-opacity="1" fill-opacity="1" visibility="visible" stroke-linecap="square" stroke-linejoin="miter" stroke-miterlimit="4"></path><path transform="matrix(1 0 0 1 0 0)" id="two-3578" d="M 334.079999 295.03 L 165.92 295.03 " fill="#fff" stroke="#fff" stroke-width="1" stroke-opacity="1" fill-opacity="1" visibility="visible" stroke-linecap="square" stroke-linejoin="miter" stroke-miterlimit="4"></path><path transform="matrix(1 0 0 1 0 0)" id="two-3579" d="M 224.079999 432.849999 L 224.079999 86.259999 " fill="#fff" stroke="#fff" stroke-width="1" stroke-opacity="1" fill-opacity="1" visibility="visible" stroke-linecap="square" stroke-linejoin="miter" stroke-miterlimit="4"></path><path transform="matrix(1 0 0 1 0 0)" id="two-3580" d="M 107.120253 328.589344 L 431.721371 134.686711 " fill="#fff" stroke="#fff" stroke-width="1" stroke-opacity="1" fill-opacity="1" visibility="visible" stroke-linecap="square" stroke-linejoin="miter" stroke-miterlimit="4"></path><path transform="matrix(1 0 0 1 0 0)" id="two-3581" d="M 155.220323 465.511068 L 344.779676 185.943931 " fill="#fff" stroke="#fff" stroke-width="1" stroke-opacity="1" fill-opacity="1" visibility="visible" stroke-linecap="square" stroke-linejoin="miter" stroke-miterlimit="4"></path><path transform="matrix(1 0 0 1 250 250)" id="two-3582" d="M -250 -250 L 250 -250 L 250 250 L -250 250 Z " fill="transparent" stroke="#fff" stroke-width="0" stroke-opacity="1" fill-opacity="1" visibility="visible" stroke-linecap="butt" stroke-linejoin="miter" stroke-miterlimit="4"></path><path transform="matrix(1 0 0 1 250 250)" id="two-3583" d="M -250 -250 L 250 -250 L 250 250 L -250 250 Z " fill="#000000" stroke="undefined" stroke-width="1" stroke-opacity="1" fill-opacity="1" visibility="visible" stroke-linecap="butt" stroke-linejoin="miter" stroke-miterlimit="4"></path><path transform="matrix(1 0 0 1 153.901748 283.682495)" id="two-3584" d="M -59.811744 -54.397501 L 59.811743 -51.629611 L 29.498256 54.397499 L -59.811744 54.397499 " fill="#0e448c" stroke="undefined" stroke-width="1" stroke-opacity="1" fill-opacity="1" visibility="visible" stroke-linecap="butt" stroke-linejoin="miter" stroke-miterlimit="4"></path><path transform="matrix(1 0 0 1 294.654998 285.066436)" id="two-3585" d="M -80.941514 -53.013556 L 111.255 -48.566445 L 111.254999 53.013555 L -111.255 53.013555 " fill="#ffd313" stroke="undefined" stroke-width="1" stroke-opacity="1" fill-opacity="1" visibility="visible" stroke-linecap="butt" stroke-linejoin="miter" stroke-miterlimit="4"></path><path transform="matrix(1 0 0 1 309.811737 181.582946)" id="two-3586" d="M -65.967778 -54.91706 L 96.098256 -19.662941 L 96.098256 54.917059 L -96.098257 50.469949 " fill="#0e448c" stroke="undefined" stroke-width="1" stroke-opacity="1" fill-opacity="1" visibility="visible" stroke-linecap="butt" stroke-linejoin="miter" stroke-miterlimit="4"></path><path transform="matrix(1 0 0 1 168.966979 163.071441)" id="two-3587" d="M -74.876983 -68.981445 L 74.876982 -36.405564 L 44.746503 68.981444 L -74.876983 66.213555 " fill="#f61710" stroke="undefined" stroke-width="1" stroke-opacity="1" fill-opacity="1" visibility="visible" stroke-linecap="butt" stroke-linejoin="miter" stroke-miterlimit="4"></path><path transform="matrix(1 0 0 1 0 0)" id="two-3588" d="M -19.513268 69.377955 L 519.513267 186.632044 " fill="#fff" stroke="#fff" stroke-width="1" stroke-opacity="1" fill-opacity="1" visibility="visible" stroke-linecap="square" stroke-linejoin="miter" stroke-miterlimit="4"></path><path transform="matrix(1 0 0 1 0 0)" id="two-3589" d="M 405.909999 60.36 L 405.909999 439.64 " fill="#fff" stroke="#fff" stroke-width="1" stroke-opacity="1" fill-opacity="1" visibility="visible" stroke-linecap="square" stroke-linejoin="miter" stroke-miterlimit="4"></path><path transform="matrix(1 0 0 1 0 0)" id="two-3590" d="M 496.409999 338.08 L 3.59 338.08 " fill="#fff" stroke="#fff" stroke-width="1" stroke-opacity="1" fill-opacity="1" visibility="visible" stroke-linecap="square" stroke-linejoin="miter" stroke-miterlimit="4"></path><path transform="matrix(1 0 0 1 0 0)" id="two-3591" d="M 94.089999 471.56 L 94.09 -39.390001 " fill="#fff" stroke="#fff" stroke-width="1" stroke-opacity="1" fill-opacity="1" visibility="visible" stroke-linecap="square" stroke-linejoin="miter" stroke-miterlimit="4"></path><path transform="matrix(1 0 0 1 0 0)" id="two-3592" d="M 167.335485 394.268655 L 259.908479 70.477226 " fill="#fff" stroke="#fff" stroke-width="1" stroke-opacity="1" fill-opacity="1" visibility="visible" stroke-linecap="square" stroke-linejoin="miter" stroke-miterlimit="4"></path><path transform="matrix(1 0 0 1 0 0)" id="two-3593" d="M 45.463015 228.159851 L 454.536984 237.625148 " fill="#fff" stroke="#fff" stroke-width="1" stroke-opacity="1" fill-opacity="1" visibility="visible" stroke-linecap="square" stroke-linejoin="miter" stroke-miterlimit="4"></path><path transform="matrix(1 0 0 1 250 250)" id="two-3594" d="M -250 -250 L 250 -250 L 250 250 L -250 250 Z " fill="transparent" stroke="#fff" stroke-width="0" stroke-opacity="1" fill-opacity="1" visibility="visible" stroke-linecap="butt" stroke-linejoin="miter" stroke-miterlimit="4"></path></g></svg>