<?xml version="1.0" standalone="no"?>
<svg version="1.1" width="500" height="500" style="overflow: hidden;" xmlns="http://www.w3.org/2000/svg"><defs></defs><g id="two-0" transform="matrix(1 0 0 1 0 0)" opacity="1"><path transform="matrix(1 0 0 1 250 250)" id="two-428" d="M -250 -250 L 250 -250 L 250 250 L -250 250 Z " fill="#ffffff" stroke="undefined" stroke-width="1" stroke-opacity="1" fill-opacity="1" visibility="visible" stroke-linecap="butt" stroke-linejoin="miter" stroke-miterlimit="4"></path><path transform="matrix(1 0 0 1 125 250)" id="two-429" d="M -125 -250 L 125 -250 L 125 250 L -125 250 " fill="#7b786f" stroke="undefined" stroke-width="1" stroke-opacity="1" fill-opacity="1" visibility="visible" stroke-linecap="butt" stroke-linejoin="miter" stroke-miterlimit="4"></path><path transform="matrix(1 0 0 1 291.666656 250)" id="two-430" d="M -41.666667 -250 L 41.666666 -250 L 41.666666 250 L -41.666667 250 " fill="#948c81" stroke="undefined" stroke-width="1" stroke-opacity="1" fill-opacity="1" visibility="visible" stroke-linecap="butt" stroke-linejoin="miter" stroke-miterlimit="4"></path><path transform="matrix(1 0 0 1 375 208.333328)" id="two-431" d="M -41.666667 -208.333334 L 41.666666 -208.333334 L 41.666666 208.333333 L -41.666667 208.333333 " fill="#b89144" stroke="undefined" stroke-width="1" stroke-opacity="1" fill-opacity="1" visibility="visible" stroke-linecap="butt" stroke-linejoin="miter" stroke-miterlimit="4"></path><path transform="matrix(1 0 0 1 416.666656 458.333343)" id="two-432" d="M -83.333334 -41.666667 L 83.333333 -41.666667 L 83.333333 41.666666 L -83.333334 41.666666 " fill="#7b786f" stroke="undefined" stroke-width="1" stroke-opacity="1" fill-opacity="1" visibility="visible" stroke-linecap="butt" stroke-linejoin="miter" stroke-miterlimit="4"></path><path transform="matrix(1 0 0 1 458.333343 41.666667)" id="two-433" d="M -41.666667 -41.666667 L 41.666666 -41.666667 L 41.666666 41.666666 L -41.666667 41.666666 " fill="#948c81" stroke="undefined" stroke-width="1" stroke-opacity="1" fill-opacity="1" visibility="visible" stroke-linecap="butt" stroke-linejoin="miter" stroke-miterlimit="4"></path><path transform="matrix(1 0 0 1 458.333343 250)" id="two-434" d="M -41.666667 -166.666667 L 41.666666 -166.666667 L 41.666666 166.666666 L -41.666667 166.666666 " fill="#7b786f" stroke="undefined" stroke-width="1" stroke-opacity="1" fill-opacity="1" visibility="visible" stroke-linecap="butt" stroke-linejoin="miter" stroke-miterlimit="4"></path><path transform="matrix(1 0 0 1 0 0)" id="two-435" d="M 0 0 L 250 0 " fill="#fff" stroke="#000" stroke-width="1" stroke-opacity="1" fill-opacity="1" visibility="visible" stroke-linecap="square" stroke-linejoin="miter" stroke-miterlimit="4"></path><path transform="matrix(1 0 0 1 0 0)" id="two-436" d="M 250 500 L 250 0 " fill="#fff" stroke="#000" stroke-width="1" stroke-opacity="1" fill-opacity="1" visibility="visible" stroke-linecap="square" stroke-linejoin="miter" stroke-miterlimit="4"></path><path transform="matrix(1 0 0 1 0 0)" id="two-437" d="M 250 0 L 333.333333 0 " fill="#fff" stroke="#000" stroke-width="1" stroke-opacity="1" fill-opacity="1" visibility="visible" stroke-linecap="square" stroke-linejoin="miter" stroke-miterlimit="4"></path><path transform="matrix(1 0 0 1 0 0)" id="two-438" d="M 333.333333 500 L 333.333333 0 " fill="#fff" stroke="#000" stroke-width="1" stroke-opacity="1" fill-opacity="1" visibility="visible" stroke-linecap="square" stroke-linejoin="miter" stroke-miterlimit="4"></path><path transform="matrix(1 0 0 1 0 0)" id="two-439" d="M 333.333333 0 L 416.666666 0 " fill="#fff" stroke="#000" stroke-width="1" stroke-opacity="1" fill-opacity="1" visibility="visible" stroke-linecap="square" stroke-linejoin="miter" stroke-miterlimit="4"></path><path transform="matrix(1 0 0 1 0 0)" id="two-440" d="M 416.666666 416.666666 L 416.666666 0 " fill="#fff" stroke="#000" stroke-width="1" stroke-opacity="1" fill-opacity="1" visibility="visible" stroke-linecap="square" stroke-linejoin="miter" stroke-miterlimit="4"></path><path transform="matrix(1 0 0 1 0 0)" id="two-441" d="M 333.333333 416.666666 L 500 416.666666 " fill="#fff" stroke="#000" stroke-width="1" stroke-opacity="1" fill-opacity="1" visibility="visible" stroke-linecap="square" stroke-linejoin="miter" stroke-miterlimit="4"></path><path transform="matrix(1 0 0 1 0 0)" id="two-442" d="M 500 500 L 500 416.666666 " fill="#fff" stroke="#000" stroke-width="1" stroke-opacity="1" fill-opacity="1" visibility="visible" stroke-linecap="square" stroke-linejoin="miter" stroke-miterlimit="4"></path><path transform="matrix(1 0 0 1 0 0)" id="two-443" d="M 416.666666 0 L 500 0 " fill="#fff" stroke="#000" stroke-width="1" stroke-opacity="1" fill-opacity="1" visibility="visible" stroke-linecap="square" stroke-linejoin="miter" stroke-miterlimit="4"></path><path transform="matrix(1 0 0 1 0 0)" id="two-444" d="M 500 83.333333 L 500 0 " fill="#fff" stroke="#000" stroke-width="1" stroke-opacity="1" fill-opacity="1" visibility="visible" stroke-linecap="square" stroke-linejoin="miter" stroke-miterlimit="4"></path><path transform="matrix(1 0 0 1 0 0)" id="two-445" d="M 416.666666 83.333333 L 500 83.333333 " fill="#fff" stroke="#000" stroke-width="1" stroke-opacity="1" fill-opacity="1" visibility="visible" stroke-linecap="square" stroke-linejoin="miter" stroke-miterlimit="4"></path><path transform="matrix(1 0 0 1 0 0)" id="two-446" d="M 500 416.666666 L 500 83.333333 " fill="#fff" stroke="#000" stroke-width="1" stroke-opacity="1" fill-opacity="1" visibility="visible" stroke-linecap="square" stroke-linejoin="miter" stroke-miterlimit="4"></path><path transform="matrix(1 0 0 1 250 250)" id="two-447" d="M -250 -250 L 250 -250 L 250 250 L -250 250 Z " fill="transparent" stroke="#000" stroke-width="0" stroke-opacity="1" fill-opacity="1" visibility="visible" stroke-linecap="butt" stroke-linejoin="miter" stroke-miterlimit="4"></path><path transform="matrix(1 0 0 1 250 250)" id="two-448" d="M -250 -250 L 250 -250 L 250 250 L -250 250 Z " fill="#ffffff" stroke="undefined" stroke-width="1" stroke-opacity="1" fill-opacity="1" visibility="visible" stroke-linecap="butt" stroke-linejoin="miter" stroke-miterlimit="4"></path><path transform="matrix(1 0 0 1 208.333328 250)" id="two-449" d="M -208.333334 -250 L 208.333333 -250 L 208.333333 250 L -208.333334 250 " fill="#7b786f" stroke="undefined" stroke-width="1" stroke-opacity="1" fill-opacity="1" visibility="visible" stroke-linecap="butt" stroke-linejoin="miter" stroke-miterlimit="4"></path><path transform="matrix(1 0 0 1 458.333343 125)" id="two-450" d="M -41.666667 -125 L 41.666666 -125 L 41.666666 125 L -41.666667 125 " fill="#7b786f" stroke="undefined" stroke-width="1" stroke-opacity="1" fill-opacity="1" visibility="visible" stroke-linecap="butt" stroke-linejoin="miter" stroke-miterlimit="4"></path><path transform="matrix(1 0 0 1 458.333343 333.333343)" id="two-451" d="M -41.666667 -83.333334 L 41.666666 -83.333334 L 41.666666 83.333333 L -41.666667 83.333333 " fill="#948c81" stroke="undefined" stroke-width="1" stroke-opacity="1" fill-opacity="1" visibility="visible" stroke-linecap="butt" stroke-linejoin="miter" stroke-miterlimit="4"></path><path transform="matrix(1 0 0 1 458.333343 458.333343)" id="two-452" d="M -41.666667 -41.666667 L 41.666666 -41.666667 L 41.666666 41.666666 L -41.666667 41.666666 " fill="#b89144" stroke="undefined" stroke-width="1" stroke-opacity="1" fill-opacity="1" visibility="visible" stroke-linecap="butt" stroke-linejoin="miter" stroke-miterlimit="4"></path><path transform="matrix(1 0 0 1 0 0)" id="two-453" d="M 0 0 L 416.666666 0 " fill="#fff" stroke="#000" stroke-width="1" stroke-opacity="1" fill-opacity="1" visibility="visible" stroke-linecap="square" stroke-linejoin="miter" stroke-miterlimit="4"></path><path transform="matrix(1 0 0 1 0 0)" id="two-454" d="M 416.666666 500 L 416.666666 0 " fill="#fff" stroke="#000" stroke-width="1" stroke-opacity="1" fill-opacity="1" visibility="visible" stroke-linecap="square" stroke-linejoin="miter" stroke-miterlimit="4"></path><path transform="matrix(1 0 0 1 0 0)" id="two-455" d="M 416.666666 0 L 500 0 " fill="#fff" stroke="#000" stroke-width="1" stroke-opacity="1" fill-opacity="1" visibility="visible" stroke-linecap="square" stroke-linejoin="miter" stroke-miterlimit="4"></path><path transform="matrix(1 0 0 1 0 0)" id="two-456" d="M 500 250 L 500 0 " fill="#fff" stroke="#000" stroke-width="1" stroke-opacity="1" fill-opacity="1" visibility="visible" stroke-linecap="square" stroke-linejoin="miter" stroke-miterlimit="4"></path><path transform="matrix(1 0 0 1 0 0)" id="two-457" d="M 416.666666 250 L 500 250 " fill="#fff" stroke="#000" stroke-width="1" stroke-opacity="1" fill-opacity="1" visibility="visible" stroke-linecap="square" stroke-linejoin="miter" stroke-miterlimit="4"></path><path transform="matrix(1 0 0 1 0 0)" id="two-458" d="M 500 416.666666 L 500 250 " fill="#fff" stroke="#000" stroke-width="1" stroke-opacity="1" fill-opacity="1" visibility="visible" stroke-linecap="square" stroke-linejoin="miter" stroke-miterlimit="4"></path><path transform="matrix(1 0 0 1 0 0)" id="two-459" d="M 416.666666 416.666666 L 500 416.666666 " fill="#fff" stroke="#000" stroke-width="1" stroke-opacity="1" fill-opacity="1" visibility="visible" stroke-linecap="square" stroke-linejoin="miter" stroke-miterlimit="4"></path><path transform="matrix(1 0 0 1 0 0)" id="two-460" d="M 500 500 L 500 416.666666 " fill="#fff" stroke="#000" stroke-width="1" stroke-opacity="1" fill-opacity="1" visibility="visible" stroke-linecap="square" stroke-linejoin="miter" stroke-miterlimit="4"></path><path transform="matrix(1 0 0 1 250 250)" id="two-461" d="M -250 -250 L 250 -250 L 250 250 L -250 250 Z " fill="transparent" stroke="#000" stroke-width="0" stroke-opacity="1" fill-opacity="1" visibility="visible" stroke-linecap="butt" stroke-linejoin="miter" stroke-miterlimit="4"></path><path transform="matrix(1 0 0 1 250 250)" id="two-462" d="M -250 -250 L 250 -250 L 250 250 L -250 250 Z " fill="#ffffff" stroke="undefined" stroke-width="1" stroke-opacity="1" fill-opacity="1" visibility="visible" stroke-linecap="butt" stroke-linejoin="miter" stroke-miterlimit="4"></path><path transform="matrix(1 0 0 1 41.666667 166.666671)" id="two-463" d="M -41.666667 -166.666667 L 41.666666 -166.666667 L 41.666666 166.666666 L -41.666667 166.666666 " fill="#b89144" stroke="undefined" stroke-width="1" stroke-opacity="1" fill-opacity="1" visibility="visible" stroke-linecap="butt" stroke-linejoin="miter" stroke-miterlimit="4"></path><path transform="matrix(1 0 0 1 83.333335 375)" id="two-464" d="M -83.333334 -41.666667 L 83.333333 -41.666667 L 83.333333 41.666666 L -83.333334 41.666666 " fill="#b89144" stroke="undefined" stroke-width="1" stroke-opacity="1" fill-opacity="1" visibility="visible" stroke-linecap="butt" stroke-linejoin="miter" stroke-miterlimit="4"></path><path transform="matrix(1 0 0 1 208.333328 458.333343)" id="two-465" d="M -208.333334 -41.666667 L 208.333333 -41.666667 L 208.333333 41.666666 L -208.333334 41.666666 " fill="#948c81" stroke="undefined" stroke-width="1" stroke-opacity="1" fill-opacity="1" visibility="visible" stroke-linecap="butt" stroke-linejoin="miter" stroke-miterlimit="4"></path><path transform="matrix(1 0 0 1 166.666671 166.666671)" id="two-466" d="M -83.333334 -166.666667 L 83.333333 -166.666667 L 83.333333 166.666666 L -83.333334 166.666666 " fill="#b89144" stroke="undefined" stroke-width="1" stroke-opacity="1" fill-opacity="1" visibility="visible" stroke-linecap="butt" stroke-linejoin="miter" stroke-miterlimit="4"></path><path transform="matrix(1 0 0 1 208.333328 375)" id="two-467" d="M -41.666667 -41.666667 L 41.666666 -41.666667 L 41.666666 41.666666 L -41.666667 41.666666 " fill="#7b786f" stroke="undefined" stroke-width="1" stroke-opacity="1" fill-opacity="1" visibility="visible" stroke-linecap="butt" stroke-linejoin="miter" stroke-miterlimit="4"></path><path transform="matrix(1 0 0 1 375 125)" id="two-468" d="M -125 -125 L 125 -125 L 125 125 L -125 125 " fill="#b89144" stroke="undefined" stroke-width="1" stroke-opacity="1" fill-opacity="1" visibility="visible" stroke-linecap="butt" stroke-linejoin="miter" stroke-miterlimit="4"></path><path transform="matrix(1 0 0 1 291.666656 291.666656)" id="two-469" d="M -41.666667 -41.666667 L 41.666666 -41.666667 L 41.666666 41.666666 L -41.666667 41.666666 " fill="#b89144" stroke="undefined" stroke-width="1" stroke-opacity="1" fill-opacity="1" visibility="visible" stroke-linecap="butt" stroke-linejoin="miter" stroke-miterlimit="4"></path><path transform="matrix(1 0 0 1 333.333343 375)" id="two-470" d="M -83.333334 -41.666667 L 83.333333 -41.666667 L 83.333333 41.666666 L -83.333334 41.666666 " fill="#b89144" stroke="undefined" stroke-width="1" stroke-opacity="1" fill-opacity="1" visibility="visible" stroke-linecap="butt" stroke-linejoin="miter" stroke-miterlimit="4"></path><path transform="matrix(1 0 0 1 375 291.666656)" id="two-471" d="M -41.666667 -41.666667 L 41.666666 -41.666667 L 41.666666 41.666666 L -41.666667 41.666666 " fill="#948c81" stroke="undefined" stroke-width="1" stroke-opacity="1" fill-opacity="1" visibility="visible" stroke-linecap="butt" stroke-linejoin="miter" stroke-miterlimit="4"></path><path transform="matrix(1 0 0 1 458.333343 375)" id="two-472" d="M -41.666667 -125 L 41.666666 -125 L 41.666666 125 L -41.666667 125 " fill="#b89144" stroke="undefined" stroke-width="1" stroke-opacity="1" fill-opacity="1" visibility="visible" stroke-linecap="butt" stroke-linejoin="miter" stroke-miterlimit="4"></path><path transform="matrix(1 0 0 1 0 0)" id="two-473" d="M 0 0 L 83.333333 0 " fill="#fff" stroke="#000" stroke-width="1" stroke-opacity="1" fill-opacity="1" visibility="visible" stroke-linecap="square" stroke-linejoin="miter" stroke-miterlimit="4"></path><path transform="matrix(1 0 0 1 0 0)" id="two-474" d="M 83.333333 333.333333 L 83.333333 0 " fill="#fff" stroke="#000" stroke-width="1" stroke-opacity="1" fill-opacity="1" visibility="visible" stroke-linecap="square" stroke-linejoin="miter" stroke-miterlimit="4"></path><path transform="matrix(1 0 0 1 0 0)" id="two-475" d="M 0 333.333333 L 166.666666 333.333333 " fill="#fff" stroke="#000" stroke-width="1" stroke-opacity="1" fill-opacity="1" visibility="visible" stroke-linecap="square" stroke-linejoin="miter" stroke-miterlimit="4"></path><path transform="matrix(1 0 0 1 0 0)" id="two-476" d="M 166.666666 416.666666 L 166.666666 333.333333 " fill="#fff" stroke="#000" stroke-width="1" stroke-opacity="1" fill-opacity="1" visibility="visible" stroke-linecap="square" stroke-linejoin="miter" stroke-miterlimit="4"></path><path transform="matrix(1 0 0 1 0 0)" id="two-477" d="M 0 416.666666 L 416.666666 416.666666 " fill="#fff" stroke="#000" stroke-width="1" stroke-opacity="1" fill-opacity="1" visibility="visible" stroke-linecap="square" stroke-linejoin="miter" stroke-miterlimit="4"></path><path transform="matrix(1 0 0 1 0 0)" id="two-478" d="M 416.666666 500 L 416.666666 416.666666 " fill="#fff" stroke="#000" stroke-width="1" stroke-opacity="1" fill-opacity="1" visibility="visible" stroke-linecap="square" stroke-linejoin="miter" stroke-miterlimit="4"></path><path transform="matrix(1 0 0 1 0 0)" id="two-479" d="M 83.333333 0 L 250 0 " fill="#fff" stroke="#000" stroke-width="1" stroke-opacity="1" fill-opacity="1" visibility="visible" stroke-linecap="square" stroke-linejoin="miter" stroke-miterlimit="4"></path><path transform="matrix(1 0 0 1 0 0)" id="two-480" d="M 250 333.333333 L 250 0 " fill="#fff" stroke="#000" stroke-width="1" stroke-opacity="1" fill-opacity="1" visibility="visible" stroke-linecap="square" stroke-linejoin="miter" stroke-miterlimit="4"></path><path transform="matrix(1 0 0 1 0 0)" id="two-481" d="M 166.666666 333.333333 L 250 333.333333 " fill="#fff" stroke="#000" stroke-width="1" stroke-opacity="1" fill-opacity="1" visibility="visible" stroke-linecap="square" stroke-linejoin="miter" stroke-miterlimit="4"></path><path transform="matrix(1 0 0 1 0 0)" id="two-482" d="M 250 416.666666 L 250 333.333333 " fill="#fff" stroke="#000" stroke-width="1" stroke-opacity="1" fill-opacity="1" visibility="visible" stroke-linecap="square" stroke-linejoin="miter" stroke-miterlimit="4"></path><path transform="matrix(1 0 0 1 0 0)" id="two-483" d="M 250 0 L 500 0 " fill="#fff" stroke="#000" stroke-width="1" stroke-opacity="1" fill-opacity="1" visibility="visible" stroke-linecap="square" stroke-linejoin="miter" stroke-miterlimit="4"></path><path transform="matrix(1 0 0 1 0 0)" id="two-484" d="M 500 250 L 500 0 " fill="#fff" stroke="#000" stroke-width="1" stroke-opacity="1" fill-opacity="1" visibility="visible" stroke-linecap="square" stroke-linejoin="miter" stroke-miterlimit="4"></path><path transform="matrix(1 0 0 1 0 0)" id="two-485" d="M 250 250 L 333.333333 250 " fill="#fff" stroke="#000" stroke-width="1" stroke-opacity="1" fill-opacity="1" visibility="visible" stroke-linecap="square" stroke-linejoin="miter" stroke-miterlimit="4"></path><path transform="matrix(1 0 0 1 0 0)" id="two-486" d="M 333.333333 333.333333 L 333.333333 250 " fill="#fff" stroke="#000" stroke-width="1" stroke-opacity="1" fill-opacity="1" visibility="visible" stroke-linecap="square" stroke-linejoin="miter" stroke-miterlimit="4"></path><path transform="matrix(1 0 0 1 0 0)" id="two-487" d="M 250 333.333333 L 416.666666 333.333333 " fill="#fff" stroke="#000" stroke-width="1" stroke-opacity="1" fill-opacity="1" visibility="visible" stroke-linecap="square" stroke-linejoin="miter" stroke-miterlimit="4"></path><path transform="matrix(1 0 0 1 0 0)" id="two-488" d="M 416.666666 416.666666 L 416.666666 333.333333 " fill="#fff" stroke="#000" stroke-width="1" stroke-opacity="1" fill-opacity="1" visibility="visible" stroke-linecap="square" stroke-linejoin="miter" stroke-miterlimit="4"></path><path transform="matrix(1 0 0 1 0 0)" id="two-489" d="M 333.333333 250 L 416.666666 250 " fill="#fff" stroke="#000" stroke-width="1" stroke-opacity="1" fill-opacity="1" visibility="visible" stroke-linecap="square" stroke-linejoin="miter" stroke-miterlimit="4"></path><path transform="matrix(1 0 0 1 0 0)" id="two-490" d="M 416.666666 333.333333 L 416.666666 250 " fill="#fff" stroke="#000" stroke-width="1" stroke-opacity="1" fill-opacity="1" visibility="visible" stroke-linecap="square" stroke-linejoin="miter" stroke-miterlimit="4"></path><path transform="matrix(1 0 0 1 0 0)" id="two-491" d="M 416.666666 250 L 500 250 " fill="#fff" stroke="#000" stroke-width="1" stroke-opacity="1" fill-opacity="1" visibility="visible" stroke-linecap="square" stroke-linejoin="miter" stroke-miterlimit="4"></path><path transform="matrix(1 0 0 1 0 0)" id="two-492" d="M 500 500 L 500 250 " fill="#fff" stroke="#000" stroke-width="1" stroke-opacity="1" fill-opacity="1" visibility="visible" stroke-linecap="square" stroke-linejoin="miter" stroke-miterlimit="4"></path><path transform="matrix(1 0 0 1 250 250)" id="two-493" d="M -250 -250 L 250 -250 L 250 250 L -250 250 Z " fill="transparent" stroke="#000" stroke-width="0" stroke-opacity="1" fill-opacity="1" visibility="visible" stroke-linecap="butt" stroke-linejoin="miter" stroke-miterlimit="4"></path><path transform="matrix(1 0 0 1 250 250)" id="two-494" d="M -250 -250 L 250 -250 L 250 250 L -250 250 Z " fill="#ffffff" stroke="undefined" stroke-width="1" stroke-opacity="1" fill-opacity="1" visibility="visible" stroke-linecap="butt" stroke-linejoin="miter" stroke-miterlimit="4"></path><path transform="matrix(1 0 0 1 125 250)" id="two-495" d="M -125 -250 L 125 -250 L 125 250 L -125 250 " fill="#7b786f" stroke="undefined" stroke-width="1" stroke-opacity="1" fill-opacity="1" visibility="visible" stroke-linecap="butt" stroke-linejoin="miter" stroke-miterlimit="4"></path><path transform="matrix(1 0 0 1 375 83.333335)" id="two-496" d="M -125 -83.333334 L 125 -83.333334 L 125 83.333333 L -125 83.333333 " fill="#b89144" stroke="undefined" stroke-width="1" stroke-opacity="1" fill-opacity="1" visibility="visible" stroke-linecap="butt" stroke-linejoin="miter" stroke-miterlimit="4"></path><path transform="matrix(1 0 0 1 291.666656 208.333328)" id="two-497" d="M -41.666667 -41.666667 L 41.666666 -41.666667 L 41.666666 41.666666 L -41.666667 41.666666 " fill="#948c81" stroke="undefined" stroke-width="1" stroke-opacity="1" fill-opacity="1" visibility="visible" stroke-linecap="butt" stroke-linejoin="miter" stroke-miterlimit="4"></path><path transform="matrix(1 0 0 1 291.666656 375)" id="two-498" d="M -41.666667 -125 L 41.666666 -125 L 41.666666 125 L -41.666667 125 " fill="#948c81" stroke="undefined" stroke-width="1" stroke-opacity="1" fill-opacity="1" visibility="visible" stroke-linecap="butt" stroke-linejoin="miter" stroke-miterlimit="4"></path><path transform="matrix(1 0 0 1 416.666656 208.333328)" id="two-499" d="M -83.333334 -41.666667 L 83.333333 -41.666667 L 83.333333 41.666666 L -83.333334 41.666666 " fill="#948c81" stroke="undefined" stroke-width="1" stroke-opacity="1" fill-opacity="1" visibility="visible" stroke-linecap="butt" stroke-linejoin="miter" stroke-miterlimit="4"></path><path transform="matrix(1 0 0 1 416.666656 333.333343)" id="two-500" d="M -83.333334 -83.333334 L 83.333333 -83.333334 L 83.333333 83.333333 L -83.333334 83.333333 " fill="#948c81" stroke="undefined" stroke-width="1" stroke-opacity="1" fill-opacity="1" visibility="visible" stroke-linecap="butt" stroke-linejoin="miter" stroke-miterlimit="4"></path><path transform="matrix(1 0 0 1 375 458.333343)" id="two-501" d="M -41.666667 -41.666667 L 41.666666 -41.666667 L 41.666666 41.666666 L -41.666667 41.666666 " fill="#7b786f" stroke="undefined" stroke-width="1" stroke-opacity="1" fill-opacity="1" visibility="visible" stroke-linecap="butt" stroke-linejoin="miter" stroke-miterlimit="4"></path><path transform="matrix(1 0 0 1 458.333343 458.333343)" id="two-502" d="M -41.666667 -41.666667 L 41.666666 -41.666667 L 41.666666 41.666666 L -41.666667 41.666666 " fill="#7b786f" stroke="undefined" stroke-width="1" stroke-opacity="1" fill-opacity="1" visibility="visible" stroke-linecap="butt" stroke-linejoin="miter" stroke-miterlimit="4"></path><path transform="matrix(1 0 0 1 0 0)" id="two-503" d="M 0 0 L 250 0 " fill="#fff" stroke="#000" stroke-width="1" stroke-opacity="1" fill-opacity="1" visibility="visible" stroke-linecap="square" stroke-linejoin="miter" stroke-miterlimit="4"></path><path transform="matrix(1 0 0 1 0 0)" id="two-504" d="M 250 500 L 250 0 " fill="#fff" stroke="#000" stroke-width="1" stroke-opacity="1" fill-opacity="1" visibility="visible" stroke-linecap="square" stroke-linejoin="miter" stroke-miterlimit="4"></path><path transform="matrix(1 0 0 1 0 0)" id="two-505" d="M 250 0 L 500 0 " fill="#fff" stroke="#000" stroke-width="1" stroke-opacity="1" fill-opacity="1" visibility="visible" stroke-linecap="square" stroke-linejoin="miter" stroke-miterlimit="4"></path><path transform="matrix(1 0 0 1 0 0)" id="two-506" d="M 500 166.666666 L 500 0 " fill="#fff" stroke="#000" stroke-width="1" stroke-opacity="1" fill-opacity="1" visibility="visible" stroke-linecap="square" stroke-linejoin="miter" stroke-miterlimit="4"></path><path transform="matrix(1 0 0 1 0 0)" id="two-507" d="M 250 166.666666 L 333.333333 166.666666 " fill="#fff" stroke="#000" stroke-width="1" stroke-opacity="1" fill-opacity="1" visibility="visible" stroke-linecap="square" stroke-linejoin="miter" stroke-miterlimit="4"></path><path transform="matrix(1 0 0 1 0 0)" id="two-508" d="M 333.333333 250 L 333.333333 166.666666 " fill="#fff" stroke="#000" stroke-width="1" stroke-opacity="1" fill-opacity="1" visibility="visible" stroke-linecap="square" stroke-linejoin="miter" stroke-miterlimit="4"></path><path transform="matrix(1 0 0 1 0 0)" id="two-509" d="M 250 250 L 333.333333 250 " fill="#fff" stroke="#000" stroke-width="1" stroke-opacity="1" fill-opacity="1" visibility="visible" stroke-linecap="square" stroke-linejoin="miter" stroke-miterlimit="4"></path><path transform="matrix(1 0 0 1 0 0)" id="two-510" d="M 333.333333 500 L 333.333333 250 " fill="#fff" stroke="#000" stroke-width="1" stroke-opacity="1" fill-opacity="1" visibility="visible" stroke-linecap="square" stroke-linejoin="miter" stroke-miterlimit="4"></path><path transform="matrix(1 0 0 1 0 0)" id="two-511" d="M 333.333333 166.666666 L 500 166.666666 " fill="#fff" stroke="#000" stroke-width="1" stroke-opacity="1" fill-opacity="1" visibility="visible" stroke-linecap="square" stroke-linejoin="miter" stroke-miterlimit="4"></path><path transform="matrix(1 0 0 1 0 0)" id="two-512" d="M 500 250 L 500 166.666666 " fill="#fff" stroke="#000" stroke-width="1" stroke-opacity="1" fill-opacity="1" visibility="visible" stroke-linecap="square" stroke-linejoin="miter" stroke-miterlimit="4"></path><path transform="matrix(1 0 0 1 0 0)" id="two-513" d="M 333.333333 250 L 500 250 " fill="#fff" stroke="#000" stroke-width="1" stroke-opacity="1" fill-opacity="1" visibility="visible" stroke-linecap="square" stroke-linejoin="miter" stroke-miterlimit="4"></path><path transform="matrix(1 0 0 1 0 0)" id="two-514" d="M 500 416.666666 L 500 250 " fill="#fff" stroke="#000" stroke-width="1" stroke-opacity="1" fill-opacity="1" visibility="visible" stroke-linecap="square" stroke-linejoin="miter" stroke-miterlimit="4"></path><path transform="matrix(1 0 0 1 0 0)" id="two-515" d="M 333.333333 416.666666 L 416.666666 416.666666 " fill="#fff" stroke="#000" stroke-width="1" stroke-opacity="1" fill-opacity="1" visibility="visible" stroke-linecap="square" stroke-linejoin="miter" stroke-miterlimit="4"></path><path transform="matrix(1 0 0 1 0 0)" id="two-516" d="M 416.666666 500 L 416.666666 416.666666 " fill="#fff" stroke="#000" stroke-width="1" stroke-opacity="1" fill-opacity="1" visibility="visible" stroke-linecap="square" stroke-linejoin="miter" stroke-miterlimit="4"></path><path transform="matrix(1 0 0 1 0 0)" id="two-517" d="M 416.666666 416.666666 L 500 416.666666 " fill="#fff" stroke="#000" stroke-width="1" stroke-opacity="1" fill-opacity="1" visibility="visible" stroke-linecap="square" stroke-linejoin="miter" stroke-miterlimit="4"></path><path transform="matrix(1 0 0 1 0 0)" id="two-518" d="M 500 500 L 500 416.666666 " fill="#fff" stroke="#000" stroke-width="1" stroke-opacity="1" fill-opacity="1" visibility="visible" stroke-linecap="square" stroke-linejoin="miter" stroke-miterlimit="4"></path><path transform="matrix(1 0 0 1 250 250)" id="two-519" d="M -250 -250 L 250 -250 L 250 250 L -250 250 Z " fill="transparent" stroke="#000" stroke-width="0" stroke-opacity="1" fill-opacity="1" visibility="visible" stroke-linecap="butt" stroke-linejoin="miter" stroke-miterlimit="4"></path></g></svg>