<?xml version="1.0" standalone="no"?>
<svg version="1.1" width="500" height="500" style="overflow: hidden;" xmlns="http://www.w3.org/2000/svg"><defs></defs><g id="two-0" transform="matrix(1 0 0 1 0 0)" opacity="1"><path transform="matrix(1 0 0 1 250 250)" id="two-1488" d="M -250 -250 L 250 -250 L 250 250 L -250 250 Z " fill="#000000" stroke="undefined" stroke-width="1" stroke-opacity="1" fill-opacity="1" visibility="visible" stroke-linecap="butt" stroke-linejoin="miter" stroke-miterlimit="4"></path><path transform="matrix(1 0 0 1 153.912841 250.089996)" id="two-1489" d="M -110.642846 -78.54 L 110.642845 -77.978036 L 8.487154 78.54 L -110.642846 78.54 " fill="#b89144" stroke="undefined" stroke-width="1" stroke-opacity="1" fill-opacity="1" visibility="visible" stroke-linecap="butt" stroke-linejoin="miter" stroke-miterlimit="4"></path><path transform="matrix(1 0 0 1 309.565002 250.370986)" id="two-1490" d="M -45.00931 -78.259018 L 147.164999 -77.770983 L 147.165 78.259017 L -147.165001 78.259017 " fill="#b89144" stroke="undefined" stroke-width="1" stroke-opacity="1" fill-opacity="1" visibility="visible" stroke-linecap="butt" stroke-linejoin="miter" stroke-miterlimit="4"></path><path transform="matrix(1 0 0 1 458.731414 171.990081)" id="two-1491" d="M -2.001401 -0.620083 L 2.0014 0.620082 L -2.001401 0.609917 " fill="#7b786f" stroke="undefined" stroke-width="1" stroke-opacity="1" fill-opacity="1" visibility="visible" stroke-linecap="butt" stroke-linejoin="miter" stroke-miterlimit="4"></path><path transform="matrix(1 0 0 1 170.276321 107.690979)" id="two-1492" d="M -127.006318 -64.420983 L 127.006317 14.278332 L 94.279372 64.420982 L -127.006318 63.859017 " fill="#948c81" stroke="undefined" stroke-width="1" stroke-opacity="1" fill-opacity="1" visibility="visible" stroke-linecap="butt" stroke-linejoin="miter" stroke-miterlimit="4"></path><path transform="matrix(1 0 0 1 0 0)" id="two-1493" d="M 5.233746 31.48544 L 494.766253 183.154559 " fill="#fff" stroke="#fff" stroke-width="1" stroke-opacity="1" fill-opacity="1" visibility="visible" stroke-linecap="square" stroke-linejoin="miter" stroke-miterlimit="4"></path><path transform="matrix(1 0 0 1 0 0)" id="two-1494" d="M 456.73 104.67 L 456.73 395.33 " fill="#fff" stroke="#fff" stroke-width="1" stroke-opacity="1" fill-opacity="1" visibility="visible" stroke-linecap="square" stroke-linejoin="miter" stroke-miterlimit="4"></path><path transform="matrix(1 0 0 1 0 0)" id="two-1495" d="M 601.13 328.63 L -101.130001 328.63 " fill="#fff" stroke="#fff" stroke-width="1" stroke-opacity="1" fill-opacity="1" visibility="visible" stroke-linecap="square" stroke-linejoin="miter" stroke-miterlimit="4"></path><path transform="matrix(1 0 0 1 0 0)" id="two-1496" d="M 43.269999 385.11 L 43.269999 -13.210001 " fill="#fff" stroke="#fff" stroke-width="1" stroke-opacity="1" fill-opacity="1" visibility="visible" stroke-linecap="square" stroke-linejoin="miter" stroke-miterlimit="4"></path><path transform="matrix(1 0 0 1 0 0)" id="two-1497" d="M 104.059843 418.015981 L 355.622791 32.583332 " fill="#fff" stroke="#fff" stroke-width="1" stroke-opacity="1" fill-opacity="1" visibility="visible" stroke-linecap="square" stroke-linejoin="miter" stroke-miterlimit="4"></path><path transform="matrix(1 0 0 1 0 0)" id="two-1498" d="M -100.289538 171.185424 L 600.289537 172.964575 " fill="#fff" stroke="#fff" stroke-width="1" stroke-opacity="1" fill-opacity="1" visibility="visible" stroke-linecap="square" stroke-linejoin="miter" stroke-miterlimit="4"></path><path transform="matrix(1 0 0 1 250 250)" id="two-1499" d="M -250 -250 L 250 -250 L 250 250 L -250 250 Z " fill="transparent" stroke="#fff" stroke-width="0" stroke-opacity="1" fill-opacity="1" visibility="visible" stroke-linecap="butt" stroke-linejoin="miter" stroke-miterlimit="4"></path><path transform="matrix(1 0 0 1 250 250)" id="two-1500" d="M -250 -250 L 250 -250 L 250 250 L -250 250 Z " fill="#000000" stroke="undefined" stroke-width="1" stroke-opacity="1" fill-opacity="1" visibility="visible" stroke-linecap="butt" stroke-linejoin="miter" stroke-miterlimit="4"></path><path transform="matrix(1 0 0 1 201.054992 391.459747)" id="two-1501" d="M -146.445 21.035248 L 135.824738 -83.120249 L 146.445 83.120248 L -146.445 83.120248 " fill="#b89144" stroke="undefined" stroke-width="1" stroke-opacity="1" fill-opacity="1" visibility="visible" stroke-linecap="butt" stroke-linejoin="miter" stroke-miterlimit="4"></path><path transform="matrix(1 0 0 1 391.134857 371.440002)" id="two-1502" d="M -54.255131 -63.100497 L 54.25513 -103.140001 L 54.25513 103.14 L -43.63487 103.14 " fill="#b89144" stroke="undefined" stroke-width="1" stroke-opacity="1" fill-opacity="1" visibility="visible" stroke-linecap="butt" stroke-linejoin="miter" stroke-miterlimit="4"></path><path transform="matrix(1 0 0 1 195.744873 223.66278)" id="two-1503" d="M -141.13487 -169.052775 L 123.661769 -188.832226 L 141.134869 84.676729 L -141.13487 188.832225 " fill="#7b786f" stroke="undefined" stroke-width="1" stroke-opacity="1" fill-opacity="1" visibility="visible" stroke-linecap="butt" stroke-linejoin="miter" stroke-miterlimit="4"></path><path transform="matrix(1 0 0 1 382.398315 166.879745)" id="two-1504" d="M -62.991681 -132.049203 L 62.99168 -141.459752 L 62.99168 101.420248 L -45.518582 141.459751 " fill="#948c81" stroke="undefined" stroke-width="1" stroke-opacity="1" fill-opacity="1" visibility="visible" stroke-linecap="butt" stroke-linejoin="miter" stroke-miterlimit="4"></path><path transform="matrix(1 0 0 1 0 0)" id="two-1505" d="M -76.125781 64.375539 L 576.12578 15.65446 " fill="#fff" stroke="#fff" stroke-width="1" stroke-opacity="1" fill-opacity="1" visibility="visible" stroke-linecap="square" stroke-linejoin="miter" stroke-miterlimit="4"></path><path transform="matrix(1 0 0 1 0 0)" id="two-1506" d="M 445.39 -95.600001 L 445.39 595.6 " fill="#fff" stroke="#fff" stroke-width="1" stroke-opacity="1" fill-opacity="1" visibility="visible" stroke-linecap="square" stroke-linejoin="miter" stroke-miterlimit="4"></path><path transform="matrix(1 0 0 1 0 0)" id="two-1507" d="M 552.55 474.58 L -52.55 474.58 " fill="#fff" stroke="#fff" stroke-width="1" stroke-opacity="1" fill-opacity="1" visibility="visible" stroke-linecap="square" stroke-linejoin="miter" stroke-miterlimit="4"></path><path transform="matrix(1 0 0 1 0 0)" id="two-1508" d="M 54.61 595.32 L 54.61 -66.13 " fill="#fff" stroke="#fff" stroke-width="1" stroke-opacity="1" fill-opacity="1" visibility="visible" stroke-linecap="square" stroke-linejoin="miter" stroke-miterlimit="4"></path><path transform="matrix(1 0 0 1 0 0)" id="two-1509" d="M 350.074425 514.87785 L 316.832213 -5.467302 " fill="#fff" stroke="#fff" stroke-width="1" stroke-opacity="1" fill-opacity="1" visibility="visible" stroke-linecap="square" stroke-linejoin="miter" stroke-miterlimit="4"></path><path transform="matrix(1 0 0 1 0 0)" id="two-1510" d="M -2.318096 433.501056 L 502.318095 247.293943 " fill="#fff" stroke="#fff" stroke-width="1" stroke-opacity="1" fill-opacity="1" visibility="visible" stroke-linecap="square" stroke-linejoin="miter" stroke-miterlimit="4"></path><path transform="matrix(1 0 0 1 250 250)" id="two-1511" d="M -250 -250 L 250 -250 L 250 250 L -250 250 Z " fill="transparent" stroke="#fff" stroke-width="0" stroke-opacity="1" fill-opacity="1" visibility="visible" stroke-linecap="butt" stroke-linejoin="miter" stroke-miterlimit="4"></path><path transform="matrix(1 0 0 1 250 250)" id="two-1512" d="M -250 -250 L 250 -250 L 250 250 L -250 250 Z " fill="#000000" stroke="undefined" stroke-width="1" stroke-opacity="1" fill-opacity="1" visibility="visible" stroke-linecap="butt" stroke-linejoin="miter" stroke-miterlimit="4"></path><path transform="matrix(1 0 0 1 140.667938 249.737503)" id="two-1513" d="M -106.217941 -147.562501 L 106.21794 -64.813033 L 63.132059 147.5625 L -106.217941 147.5625 " fill="#948c81" stroke="undefined" stroke-width="1" stroke-opacity="1" fill-opacity="1" visibility="visible" stroke-linecap="butt" stroke-linejoin="miter" stroke-miterlimit="4"></path><path transform="matrix(1 0 0 1 334.674987 291.112243)" id="two-1514" d="M -87.789119 -106.187767 L 130.875 -21.012234 L 130.874999 106.187766 L -130.875 106.187766 " fill="#b89144" stroke="undefined" stroke-width="1" stroke-opacity="1" fill-opacity="1" visibility="visible" stroke-linecap="butt" stroke-linejoin="miter" stroke-miterlimit="4"></path><path transform="matrix(1 0 0 1 356.217926 170.908996)" id="two-1515" d="M -86.365195 -99.190997 L 109.332059 -68.209004 L 109.332059 99.190996 L -109.33206 14.015464 " fill="#7b786f" stroke="undefined" stroke-width="1" stroke-opacity="1" fill-opacity="1" visibility="visible" stroke-linecap="butt" stroke-linejoin="miter" stroke-miterlimit="4"></path><path transform="matrix(1 0 0 1 152.151367 109.687232)" id="two-1516" d="M -117.701373 -75.237234 L 117.701372 -37.969228 L 94.734508 75.237233 L -117.701373 -7.512234 " fill="#b89144" stroke="undefined" stroke-width="1" stroke-opacity="1" fill-opacity="1" visibility="visible" stroke-linecap="butt" stroke-linejoin="miter" stroke-miterlimit="4"></path><path transform="matrix(1 0 0 1 0 0)" id="two-1517" d="M -98.909091 13.33713 L 598.90909 123.812869 " fill="#fff" stroke="#fff" stroke-width="1" stroke-opacity="1" fill-opacity="1" visibility="visible" stroke-linecap="square" stroke-linejoin="miter" stroke-miterlimit="4"></path><path transform="matrix(1 0 0 1 0 0)" id="two-1518" d="M 465.549999 68.339999 L 465.549999 431.66 " fill="#fff" stroke="#fff" stroke-width="1" stroke-opacity="1" fill-opacity="1" visibility="visible" stroke-linecap="square" stroke-linejoin="miter" stroke-miterlimit="4"></path><path transform="matrix(1 0 0 1 0 0)" id="two-1519" d="M 514.329999 397.3 L -14.33 397.3 " fill="#fff" stroke="#fff" stroke-width="1" stroke-opacity="1" fill-opacity="1" visibility="visible" stroke-linecap="square" stroke-linejoin="miter" stroke-miterlimit="4"></path><path transform="matrix(1 0 0 1 0 0)" id="two-1520" d="M 34.45 428.58 L 34.45 3.17 " fill="#fff" stroke="#fff" stroke-width="1" stroke-opacity="1" fill-opacity="1" visibility="visible" stroke-linecap="square" stroke-linejoin="miter" stroke-miterlimit="4"></path><path transform="matrix(1 0 0 1 0 0)" id="two-1521" d="M 187.225907 478.99571 L 286.426837 -9.977705 " fill="#fff" stroke="#fff" stroke-width="1" stroke-opacity="1" fill-opacity="1" visibility="visible" stroke-linecap="square" stroke-linejoin="miter" stroke-miterlimit="4"></path><path transform="matrix(1 0 0 1 0 0)" id="two-1522" d="M -42.051087 72.375777 L 542.051086 299.899222 " fill="#fff" stroke="#fff" stroke-width="1" stroke-opacity="1" fill-opacity="1" visibility="visible" stroke-linecap="square" stroke-linejoin="miter" stroke-miterlimit="4"></path><path transform="matrix(1 0 0 1 250 250)" id="two-1523" d="M -250 -250 L 250 -250 L 250 250 L -250 250 Z " fill="transparent" stroke="#fff" stroke-width="0" stroke-opacity="1" fill-opacity="1" visibility="visible" stroke-linecap="butt" stroke-linejoin="miter" stroke-miterlimit="4"></path><path transform="matrix(1 0 0 1 250 250)" id="two-1524" d="M -250 -250 L 250 -250 L 250 250 L -250 250 Z " fill="#000000" stroke="undefined" stroke-width="1" stroke-opacity="1" fill-opacity="1" visibility="visible" stroke-linecap="butt" stroke-linejoin="miter" stroke-miterlimit="4"></path><path transform="matrix(1 0 0 1 209.919998 349.554992)" id="two-1525" d="M -173.58 -116.205 L 173.233883 -7.977837 L 173.579999 116.204999 L -173.58 116.204999 " fill="#948c81" stroke="undefined" stroke-width="1" stroke-opacity="1" fill-opacity="1" visibility="visible" stroke-linecap="butt" stroke-linejoin="miter" stroke-miterlimit="4"></path><path transform="matrix(1 0 0 1 423.406951 403.668579)" id="two-1526" d="M -40.253059 -62.091419 L 40.253058 -36.968582 L 40.253058 62.091418 L -39.906942 62.091418 " fill="#948c81" stroke="undefined" stroke-width="1" stroke-opacity="1" fill-opacity="1" visibility="visible" stroke-linecap="butt" stroke-linejoin="miter" stroke-miterlimit="4"></path><path transform="matrix(1 0 0 1 209.746948 188.108505)" id="two-1527" d="M -173.406942 -151.768502 L 172.55146 -153.468662 L 173.406941 153.468661 L -173.406942 45.241498 " fill="#b89144" stroke="undefined" stroke-width="1" stroke-opacity="1" fill-opacity="1" visibility="visible" stroke-linecap="butt" stroke-linejoin="miter" stroke-miterlimit="4"></path><path transform="matrix(1 0 0 1 422.979187 200.470001)" id="two-1528" d="M -40.680799 -165.830161 L 40.680798 -166.23 L 40.680798 166.23 L -39.825318 141.107163 " fill="#b89144" stroke="undefined" stroke-width="1" stroke-opacity="1" fill-opacity="1" visibility="visible" stroke-linecap="butt" stroke-linejoin="miter" stroke-miterlimit="4"></path><path transform="matrix(1 0 0 1 0 0)" id="two-1529" d="M -113.238194 37.075079 L 613.238193 33.50492 " fill="#fff" stroke="#fff" stroke-width="1" stroke-opacity="1" fill-opacity="1" visibility="visible" stroke-linecap="square" stroke-linejoin="miter" stroke-miterlimit="4"></path><path transform="matrix(1 0 0 1 0 0)" id="two-1530" d="M 463.659999 -35.68 L 463.659999 535.679999 " fill="#fff" stroke="#fff" stroke-width="1" stroke-opacity="1" fill-opacity="1" visibility="visible" stroke-linecap="square" stroke-linejoin="miter" stroke-miterlimit="4"></path><path transform="matrix(1 0 0 1 0 0)" id="two-1531" d="M 558.22 465.76 L -58.22 465.76 " fill="#fff" stroke="#fff" stroke-width="1" stroke-opacity="1" fill-opacity="1" visibility="visible" stroke-linecap="square" stroke-linejoin="miter" stroke-miterlimit="4"></path><path transform="matrix(1 0 0 1 0 0)" id="two-1532" d="M 36.34 548.28 L 36.34 -46.18 " fill="#fff" stroke="#fff" stroke-width="1" stroke-opacity="1" fill-opacity="1" visibility="visible" stroke-linecap="square" stroke-linejoin="miter" stroke-miterlimit="4"></path><path transform="matrix(1 0 0 1 0 0)" id="two-1533" d="M 383.610203 505.299846 L 382.188198 -4.900008 " fill="#fff" stroke="#fff" stroke-width="1" stroke-opacity="1" fill-opacity="1" visibility="visible" stroke-linecap="square" stroke-linejoin="miter" stroke-miterlimit="4"></path><path transform="matrix(1 0 0 1 0 0)" id="two-1534" d="M -81.190248 196.673367 L 581.190247 403.376632 " fill="#fff" stroke="#fff" stroke-width="1" stroke-opacity="1" fill-opacity="1" visibility="visible" stroke-linecap="square" stroke-linejoin="miter" stroke-miterlimit="4"></path><path transform="matrix(1 0 0 1 250 250)" id="two-1535" d="M -250 -250 L 250 -250 L 250 250 L -250 250 Z " fill="transparent" stroke="#fff" stroke-width="0" stroke-opacity="1" fill-opacity="1" visibility="visible" stroke-linecap="butt" stroke-linejoin="miter" stroke-miterlimit="4"></path><path transform="matrix(1 0 0 1 250 250)" id="two-1536" d="M -250 -250 L 250 -250 L 250 250 L -250 250 Z " fill="#000000" stroke="undefined" stroke-width="1" stroke-opacity="1" fill-opacity="1" visibility="visible" stroke-linecap="butt" stroke-linejoin="miter" stroke-miterlimit="4"></path><path transform="matrix(1 0 0 1 367.524993 346.285003)" id="two-1537" d="M -68.625 -18.915 L 68.625 -18.915 L 68.625 18.915 L -56.166146 -1.125996 " fill="#948c81" stroke="undefined" stroke-width="1" stroke-opacity="1" fill-opacity="1" visibility="visible" stroke-linecap="butt" stroke-linejoin="miter" stroke-miterlimit="4"></path><path transform="matrix(1 0 0 1 132.220199 316.390014)" id="two-1538" d="M -68.370196 -10.98 L 68.370195 10.98 L -68.370196 10.98 " fill="#b89144" stroke="undefined" stroke-width="1" stroke-opacity="1" fill-opacity="1" visibility="visible" stroke-linecap="butt" stroke-linejoin="miter" stroke-miterlimit="4"></path><path transform="matrix(1 0 0 1 255.974624 336.264495)" id="two-1539" d="M -55.384232 -8.894503 L 42.925376 -8.894503 L 55.384231 8.894502 " fill="#948c81" stroke="undefined" stroke-width="1" stroke-opacity="1" fill-opacity="1" visibility="visible" stroke-linecap="butt" stroke-linejoin="miter" stroke-miterlimit="4"></path><path transform="matrix(1 0 0 1 281.739532 204.883773)" id="two-1540" d="M -154.410469 -122.486226 L 154.410468 -32.253775 L 154.410468 122.486225 L 17.160468 122.486225 " fill="#948c81" stroke="undefined" stroke-width="1" stroke-opacity="1" fill-opacity="1" visibility="visible" stroke-linecap="butt" stroke-linejoin="miter" stroke-miterlimit="4"></path><path transform="matrix(1 0 0 1 0 0)" id="two-1541" d="M -7.698448 42.944708 L 507.698447 193.535291 " fill="#fff" stroke="#fff" stroke-width="1" stroke-opacity="1" fill-opacity="1" visibility="visible" stroke-linecap="square" stroke-linejoin="miter" stroke-miterlimit="4"></path><path transform="matrix(1 0 0 1 0 0)" id="two-1542" d="M 436.15 92.77 L 436.15 407.23 " fill="#fff" stroke="#fff" stroke-width="1" stroke-opacity="1" fill-opacity="1" visibility="visible" stroke-linecap="square" stroke-linejoin="miter" stroke-miterlimit="4"></path><path transform="matrix(1 0 0 1 0 0)" id="two-1543" d="M 570.47 327.37 L -70.47 327.37 " fill="#fff" stroke="#fff" stroke-width="1" stroke-opacity="1" fill-opacity="1" visibility="visible" stroke-linecap="square" stroke-linejoin="miter" stroke-miterlimit="4"></path><path transform="matrix(1 0 0 1 0 0)" id="two-1544" d="M 63.85 352.49 L 63.85 38.73 " fill="#fff" stroke="#fff" stroke-width="1" stroke-opacity="1" fill-opacity="1" visibility="visible" stroke-linecap="square" stroke-linejoin="miter" stroke-miterlimit="4"></path><path transform="matrix(1 0 0 1 0 0)" id="two-1545" d="M 340.215337 386.360874 L 86.013725 23.406674 " fill="#fff" stroke="#fff" stroke-width="1" stroke-opacity="1" fill-opacity="1" visibility="visible" stroke-linecap="square" stroke-linejoin="miter" stroke-miterlimit="4"></path><path transform="matrix(1 0 0 1 0 0)" id="two-1546" d="M 40.706548 301.693247 L 459.293451 368.916752 " fill="#fff" stroke="#fff" stroke-width="1" stroke-opacity="1" fill-opacity="1" visibility="visible" stroke-linecap="square" stroke-linejoin="miter" stroke-miterlimit="4"></path><path transform="matrix(1 0 0 1 250 250)" id="two-1547" d="M -250 -250 L 250 -250 L 250 250 L -250 250 Z " fill="transparent" stroke="#fff" stroke-width="0" stroke-opacity="1" fill-opacity="1" visibility="visible" stroke-linecap="butt" stroke-linejoin="miter" stroke-miterlimit="4"></path><path transform="matrix(1 0 0 1 250 250)" id="two-1548" d="M -250 -250 L 250 -250 L 250 250 L -250 250 Z " fill="#000000" stroke="undefined" stroke-width="1" stroke-opacity="1" fill-opacity="1" visibility="visible" stroke-linecap="butt" stroke-linejoin="miter" stroke-miterlimit="4"></path><path transform="matrix(1 0 0 1 112.593765 373.435089)" id="two-1549" d="M -70.793763 -74.670099 L 70.793762 -83.294902 L -8.393763 83.294901 L -70.793763 83.294901 " fill="#7b786f" stroke="undefined" stroke-width="1" stroke-opacity="1" fill-opacity="1" visibility="visible" stroke-linecap="butt" stroke-linejoin="miter" stroke-miterlimit="4"></path><path transform="matrix(1 0 0 1 281.200012 365.065002)" id="two-1550" d="M -97.812475 -74.924803 L 176.999999 -91.665001 L 177 91.665 L -177 91.665 " fill="#948c81" stroke="undefined" stroke-width="1" stroke-opacity="1" fill-opacity="1" visibility="visible" stroke-linecap="butt" stroke-linejoin="miter" stroke-miterlimit="4"></path><path transform="matrix(1 0 0 1 320.793762 166.427627)" id="two-1551" d="M -19.794081 -123.712578 L 137.406237 -123.157621 L 137.406237 106.972379 L -137.406238 123.712577 " fill="#948c81" stroke="undefined" stroke-width="1" stroke-opacity="1" fill-opacity="1" visibility="visible" stroke-linecap="butt" stroke-linejoin="miter" stroke-miterlimit="4"></path><path transform="matrix(1 0 0 1 171.399841 170.282501)" id="two-1552" d="M -129.599842 -128.4825 L 129.599841 -127.567458 L 11.987684 119.857697 L -129.599842 128.482499 " fill="#b89144" stroke="undefined" stroke-width="1" stroke-opacity="1" fill-opacity="1" visibility="visible" stroke-linecap="butt" stroke-linejoin="miter" stroke-miterlimit="4"></path><path transform="matrix(1 0 0 1 0 0)" id="two-1553" d="M -38.199502 41.517581 L 538.199501 43.552418 " fill="#fff" stroke="#fff" stroke-width="1" stroke-opacity="1" fill-opacity="1" visibility="visible" stroke-linecap="square" stroke-linejoin="miter" stroke-miterlimit="4"></path><path transform="matrix(1 0 0 1 0 0)" id="two-1554" d="M 458.2 -30.150001 L 458.2 530.15 " fill="#fff" stroke="#fff" stroke-width="1" stroke-opacity="1" fill-opacity="1" visibility="visible" stroke-linecap="square" stroke-linejoin="miter" stroke-miterlimit="4"></path><path transform="matrix(1 0 0 1 0 0)" id="two-1555" d="M 562.84 456.73 L -62.840001 456.73 " fill="#fff" stroke="#fff" stroke-width="1" stroke-opacity="1" fill-opacity="1" visibility="visible" stroke-linecap="square" stroke-linejoin="miter" stroke-miterlimit="4"></path><path transform="matrix(1 0 0 1 0 0)" id="two-1556" d="M 41.799999 539.81 L 41.799999 -41.280001 " fill="#fff" stroke="#fff" stroke-width="1" stroke-opacity="1" fill-opacity="1" visibility="visible" stroke-linecap="square" stroke-linejoin="miter" stroke-miterlimit="4"></path><path transform="matrix(1 0 0 1 0 0)" id="two-1557" d="M 84.580507 498.004271 L 320.619175 1.44077 " fill="#fff" stroke="#fff" stroke-width="1" stroke-opacity="1" fill-opacity="1" visibility="visible" stroke-linecap="square" stroke-linejoin="miter" stroke-miterlimit="4"></path><path transform="matrix(1 0 0 1 0 0)" id="two-1558" d="M -40.707065 303.790916 L 540.707064 268.374083 " fill="#fff" stroke="#fff" stroke-width="1" stroke-opacity="1" fill-opacity="1" visibility="visible" stroke-linecap="square" stroke-linejoin="miter" stroke-miterlimit="4"></path><path transform="matrix(1 0 0 1 250 250)" id="two-1559" d="M -250 -250 L 250 -250 L 250 250 L -250 250 Z " fill="transparent" stroke="#fff" stroke-width="0" stroke-opacity="1" fill-opacity="1" visibility="visible" stroke-linecap="butt" stroke-linejoin="miter" stroke-miterlimit="4"></path><path transform="matrix(1 0 0 1 250 250)" id="two-1560" d="M -250 -250 L 250 -250 L 250 250 L -250 250 Z " fill="#000000" stroke="undefined" stroke-width="1" stroke-opacity="1" fill-opacity="1" visibility="visible" stroke-linecap="butt" stroke-linejoin="miter" stroke-miterlimit="4"></path><path transform="matrix(1 0 0 1 224.575622 385.485351)" id="two-1561" d="M -6.165624 -36.110353 L 6.165623 -46.254648 L 3.524376 46.254647 L -6.165624 46.254647 " fill="#948c81" stroke="undefined" stroke-width="1" stroke-opacity="1" fill-opacity="1" visibility="visible" stroke-linecap="butt" stroke-linejoin="miter" stroke-miterlimit="4"></path><path transform="matrix(1 0 0 1 254.845001 364.570007)" id="two-1562" d="M -24.103754 -25.339295 L 26.745 -67.170001 L 26.745 67.17 L -26.745 67.17 " fill="#b89144" stroke="undefined" stroke-width="1" stroke-opacity="1" fill-opacity="1" visibility="visible" stroke-linecap="butt" stroke-linejoin="miter" stroke-miterlimit="4"></path><path transform="matrix(1 0 0 1 226.874771 263.775604)" id="two-1563" d="M -8.464769 -45.365612 L 8.464768 -85.599389 L 3.866478 75.455093 L -8.464769 85.599388 " fill="#948c81" stroke="undefined" stroke-width="1" stroke-opacity="1" fill-opacity="1" visibility="visible" stroke-linecap="butt" stroke-linejoin="miter" stroke-miterlimit="4"></path><path transform="matrix(1 0 0 1 256.165618 203.745346)" id="two-1564" d="M -20.826087 -25.56913 L 25.424376 -135.485353 L 25.424376 93.654647 L -25.424377 135.485352 " fill="#7b786f" stroke="undefined" stroke-width="1" stroke-opacity="1" fill-opacity="1" visibility="visible" stroke-linecap="butt" stroke-linejoin="miter" stroke-miterlimit="4"></path><path transform="matrix(1 0 0 1 0 0)" id="two-1565" d="M 208.178703 242.725118 L 291.821296 43.944881 " fill="#fff" stroke="#fff" stroke-width="1" stroke-opacity="1" fill-opacity="1" visibility="visible" stroke-linecap="square" stroke-linejoin="miter" stroke-miterlimit="4"></path><path transform="matrix(1 0 0 1 0 0)" id="two-1566" d="M 281.59 -32.880001 L 281.59 532.88 " fill="#fff" stroke="#fff" stroke-width="1" stroke-opacity="1" fill-opacity="1" visibility="visible" stroke-linecap="square" stroke-linejoin="miter" stroke-miterlimit="4"></path><path transform="matrix(1 0 0 1 0 0)" id="two-1567" d="M 429.21 431.74 L 70.789999 431.74 " fill="#fff" stroke="#fff" stroke-width="1" stroke-opacity="1" fill-opacity="1" visibility="visible" stroke-linecap="square" stroke-linejoin="miter" stroke-miterlimit="4"></path><path transform="matrix(1 0 0 1 0 0)" id="two-1568" d="M 218.41 448.88 L 218.41 201.269999 " fill="#fff" stroke="#fff" stroke-width="1" stroke-opacity="1" fill-opacity="1" visibility="visible" stroke-linecap="square" stroke-linejoin="miter" stroke-miterlimit="4"></path><path transform="matrix(1 0 0 1 0 0)" id="two-1569" d="M 226.076548 502.611119 L 237.362989 107.305103 " fill="#fff" stroke="#fff" stroke-width="1" stroke-opacity="1" fill-opacity="1" visibility="visible" stroke-linecap="square" stroke-linejoin="miter" stroke-miterlimit="4"></path><path transform="matrix(1 0 0 1 0 0)" id="two-1570" d="M 131.437677 420.922743 L 368.562322 225.852256 " fill="#fff" stroke="#fff" stroke-width="1" stroke-opacity="1" fill-opacity="1" visibility="visible" stroke-linecap="square" stroke-linejoin="miter" stroke-miterlimit="4"></path><path transform="matrix(1 0 0 1 250 250)" id="two-1571" d="M -250 -250 L 250 -250 L 250 250 L -250 250 Z " fill="transparent" stroke="#fff" stroke-width="0" stroke-opacity="1" fill-opacity="1" visibility="visible" stroke-linecap="butt" stroke-linejoin="miter" stroke-miterlimit="4"></path></g></svg>