<?xml version="1.0" standalone="no"?>
<svg version="1.1" width="500" height="500" style="overflow: hidden;" xmlns="http://www.w3.org/2000/svg"><defs></defs><g id="two-0" transform="matrix(1 0 0 1 0 0)" opacity="1"><path transform="matrix(1 0 0 1 250 250)" id="two-1733" d="M -250 -250 L 250 -250 L 250 250 L -250 250 Z " fill="#ffffff" stroke="undefined" stroke-width="1" stroke-opacity="1" fill-opacity="1" visibility="visible" stroke-linecap="butt" stroke-linejoin="miter" stroke-miterlimit="4"></path><path transform="matrix(1 0 0 1 162.099304 335.072998)" id="two-1734" d="M -122.819299 -3.112989 L 122.819298 -132.367012 L 105.000701 132.367011 L -122.819299 132.367011 " fill="#8e95a7" stroke="undefined" stroke-width="1" stroke-opacity="1" fill-opacity="1" visibility="visible" stroke-linecap="butt" stroke-linejoin="miter" stroke-miterlimit="4"></path><path transform="matrix(1 0 0 1 363.910003 288.820007)" id="two-1735" d="M -78.991404 -86.114023 L 96.809999 -178.62 L 96.81 178.62 L -96.810001 178.62 " fill="#8e95a7" stroke="undefined" stroke-width="1" stroke-opacity="1" fill-opacity="1" visibility="visible" stroke-linecap="butt" stroke-linejoin="miter" stroke-miterlimit="4"></path><path transform="matrix(1 0 0 1 167.73706 183.571716)" id="two-1736" d="M -128.457064 -144.29171 L 128.457063 -148.388291 L 117.181532 19.134268 L -128.457064 148.38829 " fill="#8e95a7" stroke="undefined" stroke-width="1" stroke-opacity="1" fill-opacity="1" visibility="visible" stroke-linecap="butt" stroke-linejoin="miter" stroke-miterlimit="4"></path><path transform="matrix(1 0 0 1 372.819305 117.632987)" id="two-1737" d="M -76.625171 -82.44957 L 87.900701 -85.072989 L 87.900701 -7.432989 L -87.900702 85.072988 " fill="#8e95a7" stroke="undefined" stroke-width="1" stroke-opacity="1" fill-opacity="1" visibility="visible" stroke-linecap="butt" stroke-linejoin="miter" stroke-miterlimit="4"></path><path transform="matrix(1 0 0 1 0 0)" id="two-1738" d="M -67.586416 40.98402 L 567.586415 30.855979 " fill="#fff" stroke="#000" stroke-width="1" stroke-opacity="1" fill-opacity="1" visibility="visible" stroke-linecap="square" stroke-linejoin="miter" stroke-miterlimit="4"></path><path transform="matrix(1 0 0 1 0 0)" id="two-1739" d="M 460.72 15.7 L 460.72 484.3 " fill="#fff" stroke="#000" stroke-width="1" stroke-opacity="1" fill-opacity="1" visibility="visible" stroke-linecap="square" stroke-linejoin="miter" stroke-miterlimit="4"></path><path transform="matrix(1 0 0 1 0 0)" id="two-1740" d="M 513.42 467.44 L -13.42 467.44 " fill="#fff" stroke="#000" stroke-width="1" stroke-opacity="1" fill-opacity="1" visibility="visible" stroke-linecap="square" stroke-linejoin="miter" stroke-miterlimit="4"></path><path transform="matrix(1 0 0 1 0 0)" id="two-1741" d="M 39.279999 572.22 L 39.28 -65.5 " fill="#fff" stroke="#000" stroke-width="1" stroke-opacity="1" fill-opacity="1" visibility="visible" stroke-linecap="square" stroke-linejoin="miter" stroke-miterlimit="4"></path><path transform="matrix(1 0 0 1 0 0)" id="two-1742" d="M 258.333508 597.685307 L 304.960619 -95.061889 " fill="#fff" stroke="#000" stroke-width="1" stroke-opacity="1" fill-opacity="1" visibility="visible" stroke-linecap="square" stroke-linejoin="miter" stroke-miterlimit="4"></path><path transform="matrix(1 0 0 1 0 0)" id="two-1743" d="M -93.092608 401.613923 L 593.092607 40.546076 " fill="#fff" stroke="#000" stroke-width="1" stroke-opacity="1" fill-opacity="1" visibility="visible" stroke-linecap="square" stroke-linejoin="miter" stroke-miterlimit="4"></path><path transform="matrix(1 0 0 1 250 250)" id="two-1744" d="M -250 -250 L 250 -250 L 250 250 L -250 250 Z " fill="transparent" stroke="#000" stroke-width="0" stroke-opacity="1" fill-opacity="1" visibility="visible" stroke-linecap="butt" stroke-linejoin="miter" stroke-miterlimit="4"></path><path transform="matrix(1 0 0 1 250 250)" id="two-1745" d="M -250 -250 L 250 -250 L 250 250 L -250 250 Z " fill="#ffffff" stroke="undefined" stroke-width="1" stroke-opacity="1" fill-opacity="1" visibility="visible" stroke-linecap="butt" stroke-linejoin="miter" stroke-miterlimit="4"></path><path transform="matrix(1 0 0 1 149.529998 325.965789)" id="two-1746" d="M 44.73 -60.624213 L 44.73 60.624212 L -44.73 60.624212 " fill="#daa0a9" stroke="undefined" stroke-width="1" stroke-opacity="1" fill-opacity="1" visibility="visible" stroke-linecap="butt" stroke-linejoin="miter" stroke-miterlimit="4"></path><path transform="matrix(1 0 0 1 216.923965 234.624267)" id="two-1747" d="M -22.663967 -21.599269 L 22.663966 -30.717307 L -22.663967 30.717306 " fill="#daa0a9" stroke="undefined" stroke-width="1" stroke-opacity="1" fill-opacity="1" visibility="visible" stroke-linecap="butt" stroke-linejoin="miter" stroke-miterlimit="4"></path><path transform="matrix(1 0 0 1 176.357376 207.243743)" id="two-1748" d="M 17.902629 -12.983742 L 17.902629 5.781258 L -17.90263 12.983741 " fill="#8e95a7" stroke="undefined" stroke-width="1" stroke-opacity="1" fill-opacity="1" visibility="visible" stroke-linecap="butt" stroke-linejoin="miter" stroke-miterlimit="4"></path><path transform="matrix(1 0 0 1 306.405487 113.346679)" id="two-1749" d="M 0.665483 -0.901955 L -0.665484 0.901954 L -0.665484 0.063319 " fill="#c4aa6d" stroke="undefined" stroke-width="1" stroke-opacity="1" fill-opacity="1" visibility="visible" stroke-linecap="butt" stroke-linejoin="miter" stroke-miterlimit="4"></path><path transform="matrix(1 0 0 1 0 0)" id="two-1750" d="M 112.385424 253.638897 L 387.614575 54.031102 " fill="#fff" stroke="#000" stroke-width="1" stroke-opacity="1" fill-opacity="1" visibility="visible" stroke-linecap="square" stroke-linejoin="miter" stroke-miterlimit="4"></path><path transform="matrix(1 0 0 1 0 0)" id="two-1751" d="M 305.74 39.57 L 305.74 460.429999 " fill="#fff" stroke="#000" stroke-width="1" stroke-opacity="1" fill-opacity="1" visibility="visible" stroke-linecap="square" stroke-linejoin="miter" stroke-miterlimit="4"></path><path transform="matrix(1 0 0 1 0 0)" id="two-1752" d="M 443.14 386.59 L 56.859999 386.59 " fill="#fff" stroke="#000" stroke-width="1" stroke-opacity="1" fill-opacity="1" visibility="visible" stroke-linecap="square" stroke-linejoin="miter" stroke-miterlimit="4"></path><path transform="matrix(1 0 0 1 0 0)" id="two-1753" d="M 194.26 481.289999 L 194.26 99.559999 " fill="#fff" stroke="#000" stroke-width="1" stroke-opacity="1" fill-opacity="1" visibility="visible" stroke-linecap="square" stroke-linejoin="miter" stroke-miterlimit="4"></path><path transform="matrix(1 0 0 1 0 0)" id="two-1754" d="M 83.568894 415.365297 L 328.302072 83.669429 " fill="#fff" stroke="#000" stroke-width="1" stroke-opacity="1" fill-opacity="1" visibility="visible" stroke-linecap="square" stroke-linejoin="miter" stroke-miterlimit="4"></path><path transform="matrix(1 0 0 1 0 0)" id="two-1755" d="M 55.578004 240.921876 L 444.421995 162.703123 " fill="#fff" stroke="#000" stroke-width="1" stroke-opacity="1" fill-opacity="1" visibility="visible" stroke-linecap="square" stroke-linejoin="miter" stroke-miterlimit="4"></path><path transform="matrix(1 0 0 1 250 250)" id="two-1756" d="M -250 -250 L 250 -250 L 250 250 L -250 250 Z " fill="transparent" stroke="#000" stroke-width="0" stroke-opacity="1" fill-opacity="1" visibility="visible" stroke-linecap="butt" stroke-linejoin="miter" stroke-miterlimit="4"></path><path transform="matrix(1 0 0 1 250 250)" id="two-1757" d="M -250 -250 L 250 -250 L 250 250 L -250 250 Z " fill="#ffffff" stroke="undefined" stroke-width="1" stroke-opacity="1" fill-opacity="1" visibility="visible" stroke-linecap="butt" stroke-linejoin="miter" stroke-miterlimit="4"></path><path transform="matrix(1 0 0 1 222.640686 376.839996)" id="two-1758" d="M -22.710689 -68.970001 L 22.710688 -40.108785 L 5.459311 68.969999 L -22.710689 68.969999 " fill="#c4aa6d" stroke="undefined" stroke-width="1" stroke-opacity="1" fill-opacity="1" visibility="visible" stroke-linecap="butt" stroke-linejoin="miter" stroke-miterlimit="4"></path><path transform="matrix(1 0 0 1 264.084991 391.270599)" id="two-1759" d="M -18.733624 -54.539393 L 35.985 -19.770608 L 35.985 54.539392 L -35.985 54.539392 " fill="#8e95a7" stroke="undefined" stroke-width="1" stroke-opacity="1" fill-opacity="1" visibility="visible" stroke-linecap="butt" stroke-linejoin="miter" stroke-miterlimit="4"></path><path transform="matrix(1 0 0 1 222.640686 391.270599)" id="two-1760" d="M 22.710688 -54.539393 L 5.459311 54.539392 L -22.710689 54.539392 " fill="#daa0a9" stroke="undefined" stroke-width="1" stroke-opacity="1" fill-opacity="1" visibility="visible" stroke-linecap="butt" stroke-linejoin="miter" stroke-miterlimit="4"></path><path transform="matrix(1 0 0 1 174.116577 253.899993)" id="two-1761" d="M 25.81342 -53.97 L 25.81342 53.97 L -25.813421 21.165767 " fill="#8e95a7" stroke="undefined" stroke-width="1" stroke-opacity="1" fill-opacity="1" visibility="visible" stroke-linecap="butt" stroke-linejoin="miter" stroke-miterlimit="4"></path><path transform="matrix(1 0 0 1 272.710693 212.845001)" id="two-1762" d="M 14.326168 -139.687053 L 27.359311 -158.655 L 27.359311 158.655 L -27.359312 123.886215 " fill="#c4aa6d" stroke="undefined" stroke-width="1" stroke-opacity="1" fill-opacity="1" visibility="visible" stroke-linecap="butt" stroke-linejoin="miter" stroke-miterlimit="4"></path><path transform="matrix(1 0 0 1 0 0)" id="two-1763" d="M 116.013769 322.058533 L 383.98623 -67.938534 " fill="#fff" stroke="#000" stroke-width="1" stroke-opacity="1" fill-opacity="1" visibility="visible" stroke-linecap="square" stroke-linejoin="miter" stroke-miterlimit="4"></path><path transform="matrix(1 0 0 1 0 0)" id="two-1764" d="M 300.07 -30.010001 L 300.07 530.01 " fill="#fff" stroke="#000" stroke-width="1" stroke-opacity="1" fill-opacity="1" visibility="visible" stroke-linecap="square" stroke-linejoin="miter" stroke-miterlimit="4"></path><path transform="matrix(1 0 0 1 0 0)" id="two-1765" d="M 405.69 445.81 L 94.31 445.81 " fill="#fff" stroke="#000" stroke-width="1" stroke-opacity="1" fill-opacity="1" visibility="visible" stroke-linecap="square" stroke-linejoin="miter" stroke-miterlimit="4"></path><path transform="matrix(1 0 0 1 0 0)" id="two-1766" d="M 199.93 578.87 L 199.93 66.87 " fill="#fff" stroke="#000" stroke-width="1" stroke-opacity="1" fill-opacity="1" visibility="visible" stroke-linecap="square" stroke-linejoin="miter" stroke-miterlimit="4"></path><path transform="matrix(1 0 0 1 0 0)" id="two-1767" d="M 219.758195 498.554424 L 295.378661 20.413523 " fill="#fff" stroke="#000" stroke-width="1" stroke-opacity="1" fill-opacity="1" visibility="visible" stroke-linecap="square" stroke-linejoin="miter" stroke-miterlimit="4"></path><path transform="matrix(1 0 0 1 0 0)" id="two-1768" d="M 93.53212 240.263677 L 406.467879 439.106322 " fill="#fff" stroke="#000" stroke-width="1" stroke-opacity="1" fill-opacity="1" visibility="visible" stroke-linecap="square" stroke-linejoin="miter" stroke-miterlimit="4"></path><path transform="matrix(1 0 0 1 250 250)" id="two-1769" d="M -250 -250 L 250 -250 L 250 250 L -250 250 Z " fill="transparent" stroke="#000" stroke-width="0" stroke-opacity="1" fill-opacity="1" visibility="visible" stroke-linecap="butt" stroke-linejoin="miter" stroke-miterlimit="4"></path><path transform="matrix(1 0 0 1 250 250)" id="two-1770" d="M -250 -250 L 250 -250 L 250 250 L -250 250 Z " fill="#ffffff" stroke="undefined" stroke-width="1" stroke-opacity="1" fill-opacity="1" visibility="visible" stroke-linecap="butt" stroke-linejoin="miter" stroke-miterlimit="4"></path><path transform="matrix(1 0 0 1 229.36 380.215393)" id="two-1771" d="M 1.859999 -20.234606 L 1.859999 20.234605 L -1.860001 20.234605 " fill="#c4aa6d" stroke="undefined" stroke-width="1" stroke-opacity="1" fill-opacity="1" visibility="visible" stroke-linecap="butt" stroke-linejoin="miter" stroke-miterlimit="4"></path><path transform="matrix(1 0 0 1 273.981994 395.274993)" id="two-1772" d="M -5.202008 -5.175001 L 5.202007 5.174999 L -5.202008 5.174999 " fill="#c4aa6d" stroke="undefined" stroke-width="1" stroke-opacity="1" fill-opacity="1" visibility="visible" stroke-linecap="butt" stroke-linejoin="miter" stroke-miterlimit="4"></path><path transform="matrix(1 0 0 1 231.525115 356.357879)" id="two-1773" d="M -0.305122 -3.622895 L 0.305121 -3.015821 L -0.305122 3.622894 " fill="#c4aa6d" stroke="undefined" stroke-width="1" stroke-opacity="1" fill-opacity="1" visibility="visible" stroke-linecap="butt" stroke-linejoin="miter" stroke-miterlimit="4"></path><path transform="matrix(1 0 0 1 217.719528 291.977508)" id="two-1774" d="M 13.500468 -60.7575 L 13.500468 60.7575 L -13.500469 33.896743 " fill="#8e95a7" stroke="undefined" stroke-width="1" stroke-opacity="1" fill-opacity="1" visibility="visible" stroke-linecap="butt" stroke-linejoin="miter" stroke-miterlimit="4"></path><path transform="matrix(1 0 0 1 239.951644 261.671478)" id="two-1775" d="M -8.731642 -30.451473 L 8.731641 -91.670602 L -8.1214 91.670601 L -8.731642 91.063527 " fill="#daa0a9" stroke="undefined" stroke-width="1" stroke-opacity="1" fill-opacity="1" visibility="visible" stroke-linecap="butt" stroke-linejoin="miter" stroke-miterlimit="4"></path><path transform="matrix(1 0 0 1 0 0)" id="two-1776" d="M 194.949942 358.367989 L 305.050057 -27.59799 " fill="#fff" stroke="#000" stroke-width="1" stroke-opacity="1" fill-opacity="1" visibility="visible" stroke-linecap="square" stroke-linejoin="miter" stroke-miterlimit="4"></path><path transform="matrix(1 0 0 1 0 0)" id="two-1777" d="M 268.78 -14.470001 L 268.78 514.47 " fill="#fff" stroke="#000" stroke-width="1" stroke-opacity="1" fill-opacity="1" visibility="visible" stroke-linecap="square" stroke-linejoin="miter" stroke-miterlimit="4"></path><path transform="matrix(1 0 0 1 0 0)" id="two-1778" d="M 379.859999 400.45 L 120.14 400.45 " fill="#fff" stroke="#000" stroke-width="1" stroke-opacity="1" fill-opacity="1" visibility="visible" stroke-linecap="square" stroke-linejoin="miter" stroke-miterlimit="4"></path><path transform="matrix(1 0 0 1 0 0)" id="two-1779" d="M 231.22 532.95 L 231.22 98.72 " fill="#fff" stroke="#000" stroke-width="1" stroke-opacity="1" fill-opacity="1" visibility="visible" stroke-linecap="square" stroke-linejoin="miter" stroke-miterlimit="4"></path><path transform="matrix(1 0 0 1 0 0)" id="two-1780" d="M 220.497509 476.628836 L 255.685773 93.822033 " fill="#fff" stroke="#000" stroke-width="1" stroke-opacity="1" fill-opacity="1" visibility="visible" stroke-linecap="square" stroke-linejoin="miter" stroke-miterlimit="4"></path><path transform="matrix(1 0 0 1 0 0)" id="two-1781" d="M 173.214144 295.030293 L 326.785855 447.804706 " fill="#fff" stroke="#000" stroke-width="1" stroke-opacity="1" fill-opacity="1" visibility="visible" stroke-linecap="square" stroke-linejoin="miter" stroke-miterlimit="4"></path><path transform="matrix(1 0 0 1 250 250)" id="two-1782" d="M -250 -250 L 250 -250 L 250 250 L -250 250 Z " fill="transparent" stroke="#000" stroke-width="0" stroke-opacity="1" fill-opacity="1" visibility="visible" stroke-linecap="butt" stroke-linejoin="miter" stroke-miterlimit="4"></path><path transform="matrix(1 0 0 1 250 250)" id="two-1783" d="M -250 -250 L 250 -250 L 250 250 L -250 250 Z " fill="#ffffff" stroke="undefined" stroke-width="1" stroke-opacity="1" fill-opacity="1" visibility="visible" stroke-linecap="butt" stroke-linejoin="miter" stroke-miterlimit="4"></path><path transform="matrix(1 0 0 1 156.024993 246.190002)" id="two-1784" d="M -50.175 -68.58 L 30.949591 -26.261835 L 50.174999 68.579999 L -50.175001 68.579999 " fill="#8e95a7" stroke="undefined" stroke-width="1" stroke-opacity="1" fill-opacity="1" visibility="visible" stroke-linecap="butt" stroke-linejoin="miter" stroke-miterlimit="4"></path><path transform="matrix(1 0 0 1 381.468933 321.385009)" id="two-1785" d="M -12.68106 -6.615001 L 12.681059 -6.615001 L 12.681059 6.615 " fill="#daa0a9" stroke="undefined" stroke-width="1" stroke-opacity="1" fill-opacity="1" visibility="visible" stroke-linecap="butt" stroke-linejoin="miter" stroke-miterlimit="4"></path><path transform="matrix(1 0 0 1 146.412292 162.889083)" id="two-1786" d="M -40.562296 -57.039083 L 20.866038 -40.125517 L 40.562295 57.039082 L -40.562296 14.720917 " fill="#c4aa6d" stroke="undefined" stroke-width="1" stroke-opacity="1" fill-opacity="1" visibility="visible" stroke-linecap="butt" stroke-linejoin="miter" stroke-miterlimit="4"></path><path transform="matrix(1 0 0 1 0 0)" id="two-1787" d="M 51.261413 90.819677 L 448.738586 200.260322 " fill="#fff" stroke="#000" stroke-width="1" stroke-opacity="1" fill-opacity="1" visibility="visible" stroke-linecap="square" stroke-linejoin="miter" stroke-miterlimit="4"></path><path transform="matrix(1 0 0 1 0 0)" id="two-1788" d="M 394.15 92.63 L 394.15 407.37 " fill="#fff" stroke="#000" stroke-width="1" stroke-opacity="1" fill-opacity="1" visibility="visible" stroke-linecap="square" stroke-linejoin="miter" stroke-miterlimit="4"></path><path transform="matrix(1 0 0 1 0 0)" id="two-1789" d="M 541.069999 314.77 L -41.07 314.77 " fill="#fff" stroke="#000" stroke-width="1" stroke-opacity="1" fill-opacity="1" visibility="visible" stroke-linecap="square" stroke-linejoin="miter" stroke-miterlimit="4"></path><path transform="matrix(1 0 0 1 0 0)" id="two-1790" d="M 105.85 427.53 L 105.85 -6.91 " fill="#fff" stroke="#000" stroke-width="1" stroke-opacity="1" fill-opacity="1" visibility="visible" stroke-linecap="square" stroke-linejoin="miter" stroke-miterlimit="4"></path><path transform="matrix(1 0 0 1 0 0)" id="two-1791" d="M 220.67506 386.177648 L 152.803273 51.355917 " fill="#fff" stroke="#000" stroke-width="1" stroke-opacity="1" fill-opacity="1" visibility="visible" stroke-linecap="square" stroke-linejoin="miter" stroke-miterlimit="4"></path><path transform="matrix(1 0 0 1 0 0)" id="two-1792" d="M 34.548068 140.415766 L 465.451931 365.194233 " fill="#fff" stroke="#000" stroke-width="1" stroke-opacity="1" fill-opacity="1" visibility="visible" stroke-linecap="square" stroke-linejoin="miter" stroke-miterlimit="4"></path><path transform="matrix(1 0 0 1 250 250)" id="two-1793" d="M -250 -250 L 250 -250 L 250 250 L -250 250 Z " fill="transparent" stroke="#000" stroke-width="0" stroke-opacity="1" fill-opacity="1" visibility="visible" stroke-linecap="butt" stroke-linejoin="miter" stroke-miterlimit="4"></path><path transform="matrix(1 0 0 1 250 250)" id="two-1794" d="M -250 -250 L 250 -250 L 250 250 L -250 250 Z " fill="#ffffff" stroke="undefined" stroke-width="1" stroke-opacity="1" fill-opacity="1" visibility="visible" stroke-linecap="butt" stroke-linejoin="miter" stroke-miterlimit="4"></path><path transform="matrix(1 0 0 1 180.740219 246.017501)" id="two-1795" d="M -99.250214 -137.8425 L 99.250213 -83.994356 L 28.159786 137.8425 L -99.250214 137.8425 " fill="#8e95a7" stroke="undefined" stroke-width="1" stroke-opacity="1" fill-opacity="1" visibility="visible" stroke-linecap="butt" stroke-linejoin="miter" stroke-miterlimit="4"></path><path transform="matrix(1 0 0 1 313.704986 272.941558)" id="two-1796" d="M -33.714574 -110.918428 L 104.805 -73.341573 L 104.805 110.918427 L -104.805 110.918427 " fill="#8e95a7" stroke="undefined" stroke-width="1" stroke-opacity="1" fill-opacity="1" visibility="visible" stroke-linecap="butt" stroke-linejoin="miter" stroke-miterlimit="4"></path><path transform="matrix(1 0 0 1 349.250213 151.708099)" id="two-1797" d="M -50.606631 -47.891907 L 69.259786 -35.568094 L 69.259786 47.891906 L -69.259787 10.31505 " fill="#daa0a9" stroke="undefined" stroke-width="1" stroke-opacity="1" fill-opacity="1" visibility="visible" stroke-linecap="butt" stroke-linejoin="miter" stroke-miterlimit="4"></path><path transform="matrix(1 0 0 1 190.066787 121.756568)" id="two-1798" d="M -108.576792 -13.581573 L -108.576792 -40.266573 L 108.576791 -17.940385 L 89.923635 40.266572 " fill="#8e95a7" stroke="undefined" stroke-width="1" stroke-opacity="1" fill-opacity="1" visibility="visible" stroke-linecap="butt" stroke-linejoin="miter" stroke-miterlimit="4"></path><path transform="matrix(1 0 0 1 0 0)" id="two-1799" d="M 8.176461 73.952423 L 491.823538 123.677576 " fill="#fff" stroke="#000" stroke-width="1" stroke-opacity="1" fill-opacity="1" visibility="visible" stroke-linecap="square" stroke-linejoin="miter" stroke-miterlimit="4"></path><path transform="matrix(1 0 0 1 0 0)" id="two-1800" d="M 418.51 13.32 L 418.51 486.68 " fill="#fff" stroke="#000" stroke-width="1" stroke-opacity="1" fill-opacity="1" visibility="visible" stroke-linecap="square" stroke-linejoin="miter" stroke-miterlimit="4"></path><path transform="matrix(1 0 0 1 0 0)" id="two-1801" d="M 446.99 383.86 L 53.01 383.86 " fill="#fff" stroke="#000" stroke-width="1" stroke-opacity="1" fill-opacity="1" visibility="visible" stroke-linecap="square" stroke-linejoin="miter" stroke-miterlimit="4"></path><path transform="matrix(1 0 0 1 0 0)" id="two-1802" d="M 81.49 404.5 L 81.49 60.85 " fill="#fff" stroke="#000" stroke-width="1" stroke-opacity="1" fill-opacity="1" visibility="visible" stroke-linecap="square" stroke-linejoin="miter" stroke-miterlimit="4"></path><path transform="matrix(1 0 0 1 0 0)" id="two-1803" d="M 197.773306 418.580718 L 309.770276 69.095468 " fill="#fff" stroke="#000" stroke-width="1" stroke-opacity="1" fill-opacity="1" visibility="visible" stroke-linecap="square" stroke-linejoin="miter" stroke-miterlimit="4"></path><path transform="matrix(1 0 0 1 0 0)" id="two-1804" d="M -54.49524 71.285644 L 554.495239 236.489355 " fill="#fff" stroke="#000" stroke-width="1" stroke-opacity="1" fill-opacity="1" visibility="visible" stroke-linecap="square" stroke-linejoin="miter" stroke-miterlimit="4"></path><path transform="matrix(1 0 0 1 250 250)" id="two-1805" d="M -250 -250 L 250 -250 L 250 250 L -250 250 Z " fill="transparent" stroke="#000" stroke-width="0" stroke-opacity="1" fill-opacity="1" visibility="visible" stroke-linecap="butt" stroke-linejoin="miter" stroke-miterlimit="4"></path><path transform="matrix(1 0 0 1 250 250)" id="two-1806" d="M -250 -250 L 250 -250 L 250 250 L -250 250 Z " fill="#ffffff" stroke="undefined" stroke-width="1" stroke-opacity="1" fill-opacity="1" visibility="visible" stroke-linecap="butt" stroke-linejoin="miter" stroke-miterlimit="4"></path><path transform="matrix(1 0 0 1 188.614807 343.262512)" id="two-1807" d="M -22.074806 -7.492501 L 22.074805 -7.492501 L -22.074806 7.4925 " fill="#daa0a9" stroke="undefined" stroke-width="1" stroke-opacity="1" fill-opacity="1" visibility="visible" stroke-linecap="butt" stroke-linejoin="miter" stroke-miterlimit="4"></path><path transform="matrix(1 0 0 1 303.429992 314.934997)" id="two-1808" d="M -24.160927 -2.441836 L 30.029999 -20.835 L 30.03 20.834999 L -30.030001 20.834999 " fill="#c4aa6d" stroke="undefined" stroke-width="1" stroke-opacity="1" fill-opacity="1" visibility="visible" stroke-linecap="butt" stroke-linejoin="miter" stroke-miterlimit="4"></path><path transform="matrix(1 0 0 1 325.026824 131.017257)" id="two-1809" d="M 8.433188 -33.446157 L 8.433188 33.212743 L -8.433189 33.446156 " fill="#daa0a9" stroke="undefined" stroke-width="1" stroke-opacity="1" fill-opacity="1" visibility="visible" stroke-linecap="butt" stroke-linejoin="miter" stroke-miterlimit="4"></path><path transform="matrix(1 0 0 1 0 0)" id="two-1810" d="M 16.694348 168.613708 L 483.305651 162.156291 " fill="#fff" stroke="#000" stroke-width="1" stroke-opacity="1" fill-opacity="1" visibility="visible" stroke-linecap="square" stroke-linejoin="miter" stroke-miterlimit="4"></path><path transform="matrix(1 0 0 1 0 0)" id="two-1811" d="M 333.46 44.469999 L 333.46 455.53 " fill="#fff" stroke="#000" stroke-width="1" stroke-opacity="1" fill-opacity="1" visibility="visible" stroke-linecap="square" stroke-linejoin="miter" stroke-miterlimit="4"></path><path transform="matrix(1 0 0 1 0 0)" id="two-1812" d="M 366.14 335.77 L 133.859999 335.77 " fill="#fff" stroke="#000" stroke-width="1" stroke-opacity="1" fill-opacity="1" visibility="visible" stroke-linecap="square" stroke-linejoin="miter" stroke-miterlimit="4"></path><path transform="matrix(1 0 0 1 0 0)" id="two-1813" d="M 166.54 367.89 L 166.54 134.42 " fill="#fff" stroke="#000" stroke-width="1" stroke-opacity="1" fill-opacity="1" visibility="visible" stroke-linecap="square" stroke-linejoin="miter" stroke-miterlimit="4"></path><path transform="matrix(1 0 0 1 0 0)" id="two-1814" d="M 238.266765 475.10896 L 351.726858 25.124453 " fill="#fff" stroke="#000" stroke-width="1" stroke-opacity="1" fill-opacity="1" visibility="visible" stroke-linecap="square" stroke-linejoin="miter" stroke-miterlimit="4"></path><path transform="matrix(1 0 0 1 0 0)" id="two-1815" d="M 28.078183 397.750891 L 471.921816 247.104108 " fill="#fff" stroke="#000" stroke-width="1" stroke-opacity="1" fill-opacity="1" visibility="visible" stroke-linecap="square" stroke-linejoin="miter" stroke-miterlimit="4"></path><path transform="matrix(1 0 0 1 250 250)" id="two-1816" d="M -250 -250 L 250 -250 L 250 250 L -250 250 Z " fill="transparent" stroke="#000" stroke-width="0" stroke-opacity="1" fill-opacity="1" visibility="visible" stroke-linecap="butt" stroke-linejoin="miter" stroke-miterlimit="4"></path></g></svg>