<svg version="1.1" xmlns="http://www.w3.org/2000/svg" viewBox="0 0 2000 2000">
  <path fill="#000000" d="M2000,1540h-76.9v444.8h-39.9v-56.4h-1112v52.3h-40.1v-189.4H242.2v160.4h-40.1v-411.5H35.3v-40.1h166.3v-735H48.2v-39.9
	h153.5v-472H48.4v-40.1h420.5V45.4h39.9v167.2H1241V0h40v212.6h602.2V54.3h40V1500h76.8V1540z M242.4,253.2v984.4h998.4V253.2H242.4
	z M1281.2,724.7h601.4V253.3h-601.4V724.7z M1882.6,1887.8v-347.4h-601.4v347.4H1882.6z M1600.3,765.2v472.4h282.4V765.2H1600.3z
	 M1281.3,765.2v472.3h278.4V765.2L1281.3,765.2z M242.2,1499.6h488.5v-221.4H242.2V1499.6z M1240.7,1499.8v-221.5H771.4v221.5
	H1240.7z M242.4,1540.2v210.4h488.4v-210.4H242.4z M771.4,1540.2v210.4h469.4v-210.4L771.4,1540.2z M1882.6,1499.8v-221.4h-282.4
	v221.4H1882.6z M1281.1,1499.6h278.5v-221.2h-278.5V1499.6z M1240.8,1791.3H771.4v96.4h469.4V1791.3z"/>
</svg>
